<svg xmlns="http://www.w3.org/2000/svg" width="310" height="242.031" viewBox="0 0 310 242.031">
  <g id="Icon_feather-mail" data-name="Icon feather-mail" transform="translate(-1 -5.331)">
    <rect id="사각형_58" data-name="사각형 58" width="306" height="237" rx="10" transform="translate(3 7.48)" fill="none" stroke="#6740bc" stroke-width="4"/>
    <path id="패스_92" data-name="패스 92" d="M306.575,7.812,154,114.7,5.431,10.7" transform="translate(0 27.2)" fill="none" stroke="#6740bc" stroke-linecap="round" stroke-linejoin="round" stroke-width="5"/>
    <path id="패스_93" data-name="패스 93" d="M283.871,17,149.5,111.551,14.252,17" transform="translate(4.498 -7.28)" fill="none" stroke="#6740bc" stroke-linecap="round" stroke-linejoin="round" stroke-width="5"/>
    <path id="패스_94" data-name="패스 94" d="M220.132,43.488,136.173,102.26,52.41,43.626" transform="translate(17.827 -34.224)" fill="none" stroke="#6740bc" stroke-linecap="round" stroke-linejoin="round" stroke-width="5"/>
    <path id="패스_95" data-name="패스 95" d="M160.753,66.77l-37.7,26.387L86.169,67.335" transform="translate(30.943 -57.957)" fill="none" stroke="#6740bc" stroke-linecap="round" stroke-linejoin="round" stroke-width="5"/>
    <line id="선_4" data-name="선 4" y1="184" transform="translate(37.5 60.861)" fill="none" stroke="#6740bc" stroke-linecap="round" stroke-width="5"/>
    <line id="선_5" data-name="선 5" y1="156" transform="translate(76.5 88.861)" fill="none" stroke="#6740bc" stroke-linecap="round" stroke-width="5"/>
    <line id="선_6" data-name="선 6" y1="128" transform="translate(116.5 116.861)" fill="none" stroke="#6740bc" stroke-linecap="round" stroke-width="5"/>
    <line id="선_7" data-name="선 7" y1="103" transform="translate(155.5 141.861)" fill="none" stroke="#6740bc" stroke-linecap="round" stroke-width="5"/>
    <line id="선_8" data-name="선 8" y1="131" transform="translate(195.5 113.861)" fill="none" stroke="#6740bc" stroke-linecap="round" stroke-width="5"/>
    <line id="선_9" data-name="선 9" y1="156" transform="translate(234.5 88.861)" fill="none" stroke="#6740bc" stroke-linecap="round" stroke-width="5"/>
    <line id="선_10" data-name="선 10" y1="184" transform="translate(274.5 60.861)" fill="none" stroke="#6740bc" stroke-linecap="round" stroke-width="5"/>
  </g>
</svg>
