<?xml version="1.0" encoding="utf-8"?>
<!-- Generator: Adobe Illustrator 25.0.0, SVG Export Plug-In . SVG Version: 6.00 Build 0)  -->
<svg version="1.1" id="레이어_1" xmlns="http://www.w3.org/2000/svg" xmlns:xlink="http://www.w3.org/1999/xlink" x="0px"
	 y="0px" viewBox="0 0 51.02 27.83" enable-background="new 0 0 51.02 27.83" xml:space="preserve">
<g>
	<g>
		<path fill="#FFFFFF" d="M1.09,12.07c-0.08,0.01-0.16,0.01-0.25,0.01c-0.2,0-0.39-0.02-0.57-0.05C0.09,11.99,0,11.92,0,11.8
			c0-0.27,0.07-0.49,0.22-0.68c0.15-0.19,0.33-0.34,0.56-0.46c0.23-0.12,0.49-0.22,0.78-0.3c0.3-0.08,0.59-0.13,0.89-0.17
			c0.3-0.03,0.58-0.06,0.86-0.06c0.28-0.01,0.52-0.01,0.71-0.01c0.79,0,1.65,0.11,2.59,0.32c0.93,0.22,1.83,0.47,2.69,0.78
			c0.43,0.16,0.92,0.38,1.48,0.65c0.56,0.27,1.13,0.59,1.71,0.96c0.58,0.37,1.15,0.78,1.71,1.23c0.56,0.45,1.06,0.94,1.5,1.45
			c0.44,0.52,0.8,1.06,1.06,1.63c0.27,0.57,0.4,1.15,0.4,1.74c0,0.79-0.19,1.48-0.58,2.06c-0.39,0.59-0.9,1.07-1.52,1.46
			c-0.63,0.39-1.33,0.68-2.12,0.87c-0.78,0.19-1.57,0.29-2.36,0.29c-0.41,0-0.83-0.03-1.28-0.09c-0.45-0.06-0.87-0.12-1.26-0.17
			c-0.02,0.09-0.05,0.19-0.08,0.29c-0.03,0.1-0.07,0.25-0.13,0.44c-0.11,0.02-0.2,0.04-0.3,0.05c-0.09,0.01-0.2,0.02-0.31,0.02
			l-0.4-0.03c-0.13-0.16-0.22-0.36-0.28-0.6c-0.06-0.24-0.12-0.49-0.17-0.76c-0.8-0.46-1.46-0.89-1.97-1.27
			c-0.51-0.38-0.88-0.71-1.12-0.98c-0.2-0.21-0.39-0.45-0.57-0.71c-0.19-0.27-0.28-0.53-0.28-0.8c0-0.27,0.19-0.53,0.58-0.8
			c0.41-0.3,0.89-0.55,1.45-0.73c0.56-0.19,1.27-0.35,2.13-0.51l0.03-0.71c0-0.05,0.01-0.18,0.04-0.4c0.03-0.22,0.07-0.46,0.11-0.73
			c0.05-0.27,0.1-0.52,0.17-0.76c0.07-0.24,0.16-0.4,0.26-0.5c0.16,0.13,0.29,0.26,0.38,0.4c0.09,0.14,0.16,0.28,0.22,0.43
			c0.05,0.15,0.09,0.3,0.11,0.48c0.02,0.17,0.04,0.36,0.05,0.56c0.01,0.17,0.02,0.35,0.03,0.53c0.01,0.18,0.03,0.37,0.05,0.57h0.24
			c0.2,0,0.46,0.01,0.78,0.03c0.33,0.02,0.67,0.06,1.04,0.11c0.37,0.05,0.73,0.13,1.11,0.23c0.37,0.1,0.71,0.22,1.01,0.37
			c0.3,0.15,0.55,0.34,0.73,0.56c0.19,0.22,0.28,0.48,0.28,0.77c0,0.1-0.03,0.23-0.1,0.37c-0.07,0.14-0.16,0.27-0.28,0.39
			c-0.12,0.12-0.24,0.23-0.38,0.31c-0.14,0.09-0.28,0.13-0.43,0.13c-0.1,0-0.24-0.02-0.39-0.06c-0.16-0.04-0.28-0.1-0.37-0.17
			c0.13-0.15,0.27-0.29,0.43-0.42c0.16-0.13,0.26-0.25,0.32-0.37c-0.09-0.1-0.27-0.21-0.52-0.31c-0.26-0.1-0.55-0.2-0.9-0.29
			c-0.34-0.09-0.71-0.16-1.09-0.22c-0.38-0.06-0.75-0.09-1.1-0.09c-0.12,0-0.2,0.01-0.26,0.02c-0.06,0.01-0.12,0.03-0.19,0.05
			l0.02,3.76c0.28,0.17,0.57,0.28,0.88,0.32c0.31,0.04,0.57,0.06,0.79,0.06c0.31,0,0.68-0.01,1.1-0.03
			c0.42-0.02,0.84-0.08,1.28-0.17c0.44-0.09,0.86-0.21,1.28-0.36c0.42-0.15,0.79-0.35,1.12-0.61c0.33-0.26,0.6-0.57,0.8-0.93
			c0.2-0.37,0.3-0.81,0.3-1.33c0-0.51-0.1-1-0.3-1.47c-0.2-0.47-0.48-0.92-0.82-1.34c-0.34-0.42-0.74-0.82-1.2-1.19
			c-0.46-0.37-0.94-0.71-1.45-1.03c-0.51-0.31-1.02-0.6-1.55-0.85c-0.53-0.26-1.04-0.48-1.52-0.66c-1.03-0.39-2.05-0.69-3.06-0.89
			c-1.01-0.2-2.08-0.3-3.23-0.3c-0.23,0-0.47,0.01-0.71,0.04c-0.24,0.02-0.48,0.06-0.71,0.12c-0.27,0.06-0.4,0.13-0.4,0.21
			c0,0.04,0.03,0.06,0.1,0.09c0.06,0.02,0.13,0.04,0.21,0.06c0.08,0.02,0.15,0.03,0.22,0.04c0.07,0.01,0.12,0.02,0.14,0.03
			c0.06,0.04,0.09,0.08,0.09,0.14c0,0.05-0.02,0.09-0.07,0.14C1.22,12.06,1.17,12.06,1.09,12.07z M6.31,18.19
			c-0.37,0.05-0.76,0.09-1.17,0.13c-0.41,0.04-0.78,0.1-1.12,0.17c-0.34,0.07-0.62,0.15-0.84,0.25c-0.22,0.1-0.33,0.22-0.33,0.37
			c0,0.12,0.04,0.24,0.13,0.37c0.09,0.13,0.2,0.25,0.33,0.37c0.13,0.12,0.27,0.24,0.42,0.36c0.14,0.12,0.28,0.22,0.41,0.31
			c0.28,0.23,0.61,0.44,1,0.63c0.39,0.19,0.79,0.33,1.19,0.42l0.16-3.38H6.31z"/>
		<path fill="#FFFFFF" d="M21.18,12.02c0.01-0.01,0.02-0.01,0.04-0.01c0.07,0,0.16,0.02,0.27,0.05c0.11,0.03,0.22,0.09,0.32,0.17
			c0.1,0.08,0.19,0.18,0.27,0.3c0.08,0.12,0.11,0.26,0.11,0.42c0,0.34-0.13,0.68-0.38,1.02c-0.25,0.34-0.55,0.65-0.91,0.92
			c-0.36,0.27-0.74,0.5-1.13,0.67c-0.39,0.17-0.74,0.26-1.03,0.26c-0.17,0-0.36-0.01-0.56-0.03c-0.2-0.02-0.38-0.06-0.54-0.12
			c-0.09,0.12-0.17,0.22-0.24,0.3c-0.06,0.08-0.16,0.13-0.29,0.16c-0.09-0.02-0.18-0.1-0.27-0.24c-0.09-0.14-0.14-0.31-0.17-0.51
			c0-0.05,0.01-0.1,0.02-0.15c0.01-0.05,0.02-0.1,0.04-0.15c-0.13-0.17-0.24-0.34-0.32-0.51c-0.09-0.16-0.13-0.34-0.13-0.54
			c0-0.29,0.1-0.59,0.3-0.91c0.2-0.31,0.46-0.6,0.78-0.86c0.32-0.26,0.68-0.48,1.08-0.65c0.4-0.17,0.81-0.26,1.23-0.26
			c0.38,0,0.71,0.06,0.98,0.19c0.27,0.13,0.44,0.29,0.5,0.49C21.16,12.03,21.17,12.02,21.18,12.02z M17.22,14.06
			c0.03,0,0.06-0.01,0.09-0.03c0.06-0.08,0.14-0.18,0.25-0.3c0.11-0.12,0.23-0.24,0.36-0.37c0.13-0.13,0.26-0.26,0.39-0.39
			c0.13-0.13,0.25-0.24,0.36-0.33v-0.02c0-0.03-0.01-0.06-0.04-0.09c-0.44,0.09-0.79,0.28-1.04,0.57c-0.26,0.28-0.4,0.6-0.44,0.93
			C17.17,14.05,17.19,14.06,17.22,14.06z M18.71,17.1c0.08,0.17,0.13,0.43,0.16,0.77c0.02,0.71,0.06,1.43,0.1,2.15
			c0.05,0.73,0.07,1.44,0.07,2.13c0,0.14-0.04,0.28-0.1,0.41c-0.07,0.13-0.21,0.2-0.44,0.2c-0.07,0-0.15-0.01-0.24-0.03
			c-0.09-0.02-0.17-0.05-0.24-0.07c-0.06-0.01-0.11-0.06-0.15-0.15c-0.04-0.09-0.08-0.18-0.11-0.28c-0.03-0.1-0.05-0.19-0.07-0.29
			c-0.02-0.09-0.03-0.16-0.03-0.21c0-0.22,0-0.39,0-0.52c0-0.14,0-0.27,0.01-0.38c0.01-0.12,0.01-0.24,0.02-0.37
			c0.01-0.13,0.01-0.32,0.03-0.55c0.01-0.13,0.03-0.43,0.07-0.91c0.03-0.48,0.11-1.16,0.23-2.05c0.01-0.08,0.05-0.12,0.1-0.12
			C18.43,16.83,18.63,16.92,18.71,17.1z M18.24,14.74c0.03,0.03,0.06,0.05,0.09,0.05h0.38c0.22,0,0.48-0.04,0.78-0.11
			c0.3-0.08,0.59-0.18,0.87-0.32c0.28-0.14,0.51-0.31,0.71-0.51c0.19-0.2,0.29-0.44,0.29-0.71c0-0.13-0.02-0.23-0.05-0.31
			c-0.03-0.08-0.17-0.12-0.4-0.12c-0.26,0-0.51,0.06-0.75,0.17c-0.24,0.11-0.48,0.26-0.71,0.44c-0.23,0.19-0.46,0.39-0.67,0.63
			c-0.22,0.23-0.41,0.47-0.58,0.71C18.19,14.68,18.21,14.71,18.24,14.74z"/>
		<path fill="#FFFFFF" d="M20.66,18.42c0,0.02,0.01,0.03,0.04,0.03c0.34,0.13,0.63,0.22,0.89,0.26c0.26,0.05,0.56,0.08,0.91,0.1
			c0.29,0.02,0.61,0.05,0.96,0.08c0.35,0.03,0.67,0.1,0.96,0.21c0.29,0.11,0.53,0.28,0.73,0.51c0.2,0.23,0.3,0.54,0.3,0.95
			c0,0.48-0.11,0.85-0.34,1.11c-0.23,0.26-0.49,0.46-0.78,0.59c-0.3,0.13-0.59,0.21-0.88,0.24c-0.29,0.03-0.51,0.04-0.65,0.04
			c-0.37,0-0.73-0.05-1.06-0.16c-0.34-0.1-0.63-0.24-0.89-0.4c-0.26-0.16-0.46-0.34-0.61-0.54c-0.15-0.2-0.23-0.38-0.23-0.56
			c0-0.21,0.05-0.38,0.15-0.52c0.1-0.14,0.23-0.25,0.38-0.33c0.16-0.08,0.33-0.14,0.51-0.17c0.19-0.03,0.37-0.05,0.54-0.05
			c0.34,0,0.71,0.04,1.11,0.13c0.4,0.09,0.78,0.22,1.14,0.41c0.02,0.02,0.03,0.05,0.03,0.07c0,0.05-0.01,0.08-0.03,0.1
			c-0.07,0.07-0.2,0.15-0.38,0.23c-0.19,0.08-0.39,0.12-0.61,0.12c-0.13,0-0.26-0.02-0.41-0.06c-0.14-0.04-0.3-0.09-0.46-0.14
			c-0.16-0.05-0.33-0.1-0.5-0.15c-0.17-0.05-0.34-0.07-0.51-0.07c-0.13,0-0.25,0.02-0.37,0.07c-0.12,0.05-0.17,0.17-0.17,0.37
			c0,0.1,0.04,0.19,0.13,0.25c0.09,0.06,0.2,0.11,0.34,0.13c0.14,0.02,0.29,0.04,0.45,0.04c0.16,0.01,0.33,0.01,0.49,0.01
			c0.08,0,0.27-0.02,0.57-0.05c0.3-0.04,0.6-0.09,0.92-0.17c0.32-0.08,0.61-0.17,0.86-0.29c0.26-0.12,0.38-0.26,0.38-0.42
			c0-0.15-0.1-0.28-0.3-0.39c-0.2-0.11-0.44-0.2-0.71-0.27c-0.28-0.07-0.56-0.12-0.85-0.17c-0.29-0.04-0.53-0.06-0.71-0.06
			c-0.5-0.01-0.9-0.03-1.2-0.07c-0.3-0.03-0.53-0.09-0.69-0.17c-0.16-0.08-0.26-0.17-0.3-0.3c-0.05-0.12-0.07-0.28-0.07-0.46
			c0-0.27,0.08-0.5,0.24-0.7c0.16-0.2,0.37-0.36,0.62-0.49c0.25-0.13,0.52-0.23,0.81-0.31c0.29-0.08,0.57-0.13,0.83-0.17
			c0.26-0.04,0.48-0.07,0.66-0.08c0.18-0.01,0.28-0.02,0.3-0.02c0.44,0,0.85,0.03,1.23,0.1c0.38,0.06,0.71,0.13,1,0.2
			c0.06,0.01,0.1,0.03,0.14,0.07c0.04,0.03,0.05,0.1,0.05,0.19c-0.01,0.1-0.06,0.19-0.13,0.25c-0.08,0.06-0.16,0.11-0.25,0.15
			c-0.07,0.02-0.17,0.04-0.29,0.06c-0.12,0.02-0.22,0.03-0.29,0.04c-0.15,0.02-0.37,0.04-0.64,0.06c-0.28,0.02-0.57,0.04-0.86,0.06
			c-0.3,0.02-0.58,0.05-0.85,0.07c-0.27,0.02-0.47,0.05-0.61,0.07c-0.29,0.05-0.5,0.09-0.64,0.12c-0.14,0.03-0.26,0.08-0.35,0.14
			C20.68,18.37,20.66,18.4,20.66,18.42z"/>
		<path fill="#FFFFFF" d="M28.98,16.24c0-0.07,0.01-0.15,0.03-0.24c0.02-0.09,0.07-0.13,0.15-0.13c0.12,0,0.28,0.1,0.5,0.31
			c0.21,0.2,0.42,0.49,0.63,0.85c0.2,0.37,0.38,0.8,0.53,1.32c0.15,0.51,0.23,1.07,0.23,1.67c0,0.27-0.03,0.54-0.09,0.81
			c-0.06,0.27-0.14,0.52-0.26,0.75c-0.12,0.23-0.26,0.41-0.43,0.56c-0.17,0.15-0.36,0.22-0.57,0.22c-0.16,0-0.33-0.08-0.51-0.24
			c-0.17-0.16-0.34-0.36-0.5-0.6c-0.16-0.24-0.3-0.5-0.44-0.78c-0.14-0.28-0.27-0.54-0.38-0.78c-0.12-0.24-0.22-0.44-0.3-0.6
			c-0.09-0.16-0.15-0.24-0.18-0.24c-0.05,0-0.09,0.06-0.12,0.19c-0.01,0.06-0.02,0.2-0.03,0.42c-0.01,0.22-0.02,0.47-0.03,0.75
			c-0.01,0.28-0.03,0.55-0.04,0.81c-0.02,0.26-0.04,0.46-0.06,0.6c-0.01,0.06-0.03,0.13-0.05,0.23c-0.02,0.09-0.05,0.18-0.09,0.27
			c-0.04,0.09-0.09,0.16-0.15,0.23c-0.06,0.06-0.14,0.1-0.24,0.1c-0.14,0-0.25-0.05-0.34-0.16c-0.09-0.11-0.16-0.23-0.21-0.38
			c-0.05-0.14-0.09-0.3-0.1-0.45c-0.02-0.16-0.03-0.29-0.03-0.39c0-0.15,0.01-0.36,0.04-0.62c0.02-0.26,0.06-0.55,0.1-0.85
			c0.05-0.31,0.1-0.62,0.17-0.92c0.07-0.31,0.15-0.59,0.24-0.85c0.09-0.26,0.19-0.46,0.3-0.63c0.1-0.16,0.22-0.24,0.35-0.24
			c0.13,0,0.29,0.12,0.48,0.36c0.19,0.24,0.4,0.53,0.62,0.87c0.22,0.34,0.45,0.71,0.69,1.09c0.24,0.38,0.47,0.72,0.71,1.01
			c0.09,0.09,0.13,0.14,0.12,0.14c0.06,0,0.09-0.04,0.09-0.11c0.01-0.08,0.01-0.19,0.01-0.34c0-0.39-0.02-0.73-0.06-1.02
			c-0.04-0.28-0.1-0.56-0.16-0.82c-0.07-0.26-0.15-0.54-0.24-0.83c-0.09-0.29-0.19-0.64-0.3-1.05l-0.05-0.21V16.24z"/>
		<path fill="#FFFFFF" d="M35.46,21.89c-0.12,0.09-0.27,0.21-0.45,0.34c-0.19,0.13-0.4,0.26-0.64,0.39
			c-0.24,0.13-0.49,0.24-0.76,0.32c-0.27,0.09-0.55,0.13-0.84,0.13c-0.49,0-0.84-0.15-1.06-0.45c-0.22-0.3-0.33-0.64-0.33-1.01
			c0-0.2,0.05-0.43,0.15-0.69c0.1-0.26,0.19-0.53,0.29-0.79c-0.02-0.09-0.05-0.17-0.09-0.23c-0.04-0.06-0.05-0.13-0.05-0.23
			c0-0.07,0.01-0.13,0.03-0.17c0.02-0.05,0.04-0.1,0.06-0.17c0.07-0.02,0.14-0.05,0.22-0.08c0.08-0.03,0.15-0.05,0.23-0.06
			l0.42-0.96c-0.1-0.05-0.22-0.1-0.33-0.15c-0.12-0.05-0.22-0.11-0.32-0.17c-0.1-0.06-0.18-0.13-0.24-0.21
			c-0.06-0.08-0.1-0.16-0.1-0.25c0-0.09,0.04-0.16,0.11-0.19c0.07-0.03,0.19-0.06,0.34-0.07c0.19-0.01,0.38-0.03,0.58-0.07
			c0.2-0.03,0.42-0.07,0.66-0.11c0.24-0.04,0.5-0.08,0.79-0.11c0.29-0.03,0.62-0.05,0.98-0.05c0.08,0,0.17,0.01,0.28,0.02
			c0.1,0.01,0.25,0.05,0.44,0.1c0.08,0.09,0.19,0.22,0.34,0.38c0.14,0.16,0.22,0.32,0.22,0.47c0,0.05-0.03,0.09-0.1,0.13
			c-0.07,0.04-0.15,0.08-0.24,0.11c-0.09,0.03-0.19,0.07-0.3,0.1c-0.11,0.03-0.21,0.04-0.29,0.04c-0.19,0.01-0.34,0.02-0.47,0.03
			c-0.13,0.01-0.24,0.01-0.33,0.01c-0.09,0-0.19,0-0.28,0.01c-0.09,0.01-0.2,0.01-0.31,0.01c-0.12,0-0.2,0.01-0.26,0.02
			c-0.04,0.04-0.08,0.11-0.13,0.23c-0.05,0.12-0.08,0.28-0.08,0.51c0,0.03,0.01,0.07,0.03,0.11c0.02,0.04,0.06,0.06,0.12,0.06h1.29
			l0.24,0.03c0.05,0.06,0.08,0.14,0.09,0.24c0.01,0.1,0.02,0.19,0.02,0.27c0,0.07-0.01,0.15-0.03,0.25
			c-0.02,0.1-0.08,0.15-0.16,0.17c-0.16,0.01-0.42,0.02-0.78,0.03c-0.35,0.01-0.75,0.02-1.19,0.02c-0.05,0-0.08,0.02-0.11,0.07
			c-0.05,0.19-0.1,0.38-0.17,0.57c-0.07,0.2-0.15,0.4-0.24,0.59c0.05,0,0.23-0.03,0.55-0.1c0.32-0.06,0.76-0.12,1.32-0.18
			c0.09-0.01,0.19-0.02,0.29-0.03c0.1-0.01,0.19-0.01,0.29-0.01c0.1,0,0.2,0.06,0.3,0.17c0.09,0.12,0.14,0.23,0.14,0.35
			C35.56,21.75,35.53,21.84,35.46,21.89z"/>
		<path fill="#FFFFFF" d="M36.31,27.83c-0.35-0.04-0.63-0.18-0.85-0.44c-0.21-0.26-0.32-0.58-0.32-0.95c0-0.08,0.02-0.26,0.06-0.52
			c0.04-0.27,0.11-0.6,0.2-1c0.09-0.4,0.22-0.86,0.38-1.38c0.16-0.52,0.37-1.07,0.61-1.65c-0.09-0.21-0.17-0.42-0.23-0.64
			c-0.06-0.21-0.09-0.43-0.09-0.64c0-0.45,0.09-0.91,0.28-1.38c0.19-0.46,0.4-0.89,0.64-1.26c0.24-0.38,0.47-0.69,0.7-0.93
			c0.23-0.24,0.39-0.37,0.48-0.38c0.13,0.02,0.21,0.07,0.23,0.14c0.03,0.07,0.04,0.19,0.04,0.35c0,0.17-0.06,0.35-0.17,0.52
			c-0.12,0.17-0.31,0.47-0.58,0.87c-0.14,0.22-0.29,0.49-0.44,0.82c-0.16,0.33-0.24,0.65-0.24,0.96c0,0.03,0,0.07,0.01,0.11
			c0.01,0.04,0.02,0.07,0.04,0.1h0.03c0.01,0,0.04-0.02,0.07-0.07c0.21-0.28,0.46-0.6,0.77-0.97c0.3-0.37,0.62-0.71,0.94-1.05
			c0.33-0.33,0.64-0.61,0.95-0.85c0.31-0.23,0.57-0.35,0.79-0.35c0.22,0,0.41,0.08,0.56,0.24c0.15,0.16,0.27,0.36,0.35,0.58
			c0.08,0.23,0.14,0.46,0.17,0.71c0.04,0.24,0.05,0.45,0.05,0.63c0,0.51-0.14,0.98-0.42,1.41c-0.28,0.43-0.62,0.8-1.01,1.12
			c-0.39,0.31-0.81,0.56-1.24,0.73c-0.43,0.17-0.79,0.26-1.08,0.26c-0.06,0-0.12,0-0.18,0.01c-0.06,0.01-0.13,0.01-0.2,0.03
			c-0.17,0.5-0.32,0.94-0.43,1.32c-0.11,0.38-0.21,0.74-0.3,1.09c-0.09,0.35-0.17,0.71-0.25,1.07c-0.08,0.37-0.18,0.78-0.3,1.25
			L36.31,27.83z M40.21,20.63c0.5-0.43,0.75-1,0.75-1.71c0-0.09-0.01-0.2-0.03-0.31c-0.02-0.12-0.08-0.17-0.2-0.17
			c-0.07,0-0.16,0.04-0.28,0.13c-0.12,0.09-0.23,0.19-0.35,0.31c-0.12,0.12-0.23,0.24-0.33,0.37c-0.1,0.13-0.19,0.23-0.26,0.31
			c-0.05,0.07-0.12,0.19-0.22,0.37c-0.1,0.17-0.2,0.36-0.31,0.57c-0.11,0.2-0.21,0.4-0.3,0.58c-0.09,0.18-0.15,0.31-0.18,0.37
			C39.11,21.36,39.68,21.1,40.21,20.63z"/>
	</g>
	<g>
		<path fill="#FFFFFF" d="M51.02,18.43h-3.25l0-0.01c-0.07-1.03-0.13-2.17-0.39-3.39h-1.16c0,0,0.32,1.36,0.45,3.4h-3.21v1.13h3.26
			c0.02,0.97-0.02,2.05-0.15,3.18h1.14c0,0,0.17-1.26,0.13-3.18h3.19V18.43z"/>
		<path fill="#FFFFFF" d="M26.85,0C19.95,0,13.81,3.2,9.81,8.18h1.43c3.8-4.35,9.39-7.09,15.61-7.09c8.59,0,15.89,5.18,19.01,12.61
			h1.18C43.86,5.66,36.05,0,26.85,0z"/>
	</g>
</g>
</svg>
