<svg xmlns="http://www.w3.org/2000/svg" xmlns:xlink="http://www.w3.org/1999/xlink" width="589.588" height="156.709" viewBox="0 0 589.588 156.709">
  <defs>
    <clipPath id="clip-path">
      <rect id="사각형_59" data-name="사각형 59" width="589.588" height="156.709" fill="#f9f3e9"/>
    </clipPath>
  </defs>
  <g id="그룹_65" data-name="그룹 65" clip-path="url(#clip-path)">
    <path id="패스_99" data-name="패스 99" d="M89.652,59.666c-5.229-6.719-14.131-9.719-21.138-9.719-16.254,0-27.941,14.214-27.941,31.1,0,13.5,6.822,23.866,16.644,28.427A27.613,27.613,0,0,0,69,111.9c8.695,0,17.083-3.538,21.622-8.99l22.11,26.968c-10.263,9.929-28.023,15.55-44.705,15.55C29.314,145.431,0,120.247,0,81.045,0,43.914,27.334,16.661,67.785,16.661c13.877,0,33.435,4.749,44.948,16.28Z" transform="translate(0 11.278)" fill="#f9f3e9"/>
    <path id="패스_100" data-name="패스 100" d="M134.307,16.661C96.714,16.661,67.188,42.4,67.188,80.8s29.526,64.374,67.119,64.374S201.423,119.2,201.423,80.8,171.9,16.661,134.307,16.661m0,95.468C116.3,112.129,105.821,98,105.821,80.8S116.3,49.7,134.307,49.7,162.793,63.6,162.793,80.8s-10.477,31.332-28.486,31.332" transform="translate(45.481 11.278)" fill="#f9f3e9"/>
    <path id="패스_101" data-name="패스 101" d="M349.99,82.5c0,1.622-.084,8.017-.243,9.476H262.04c1.224,12.907,14.3,22.838,28.912,22.838,11.5,0,20.692-4.471,26.725-12.636l27.7,17.494c-12.2,17.769-34.174,25.754-54.909,25.754-38.227,0-66.571-24.538-66.571-63.9,0-38.4,27.6-64.872,65.357-64.872,37.427,0,60.738,26.958,60.738,65.843M313.3,67.2c0-13.288-9.22-23.081-24.76-23.081-15.156,0-25.852,10.5-26.5,23.081Z" transform="translate(151.561 11.278)" fill="#f9f3e9"/>
    <path id="패스_102" data-name="패스 102" d="M358.174,60.269V107.81c0,12.029,4.321,17.073,15.064,17.073,3.367,0,8.78-.662,11.661-1.945l.486,29.157c-5.812,2.049-17.385,3.644-23.081,3.644-27.116,0-43-11.9-43-43.116V60.269H299.864V30.627h19.192V0h39.118V30.627H386.6V60.269Z" transform="translate(202.987 0)" fill="#f9f3e9"/>
    <path id="패스_103" data-name="패스 103" d="M198.586,141.659l47.092-123.4h-7.043l-24.009,62.91-24.009-62.91h-7.041L211.106,90.4l-3.235,8.477L177.106,18.264h-7.041L204.35,108.1l-3.235,8.475L163.6,18.264h-7.043l41.041,107.541-3.235,8.477L150.084,18.264h-7.043l47.09,123.4Z" transform="translate(96.829 12.363)" fill="#f9f3e9"/>
    <path id="패스_104" data-name="패스 104" d="M187.064,141.659l47.09-123.4h-7.041l-47.09,123.4Z" transform="translate(121.862 12.363)" fill="#f9f3e9"/>
    <path id="패스_105" data-name="패스 105" d="M195.121,141.659l47.092-123.4h-7.043l-47.09,123.4Z" transform="translate(127.316 12.363)" fill="#f9f3e9"/>
    <path id="패스_106" data-name="패스 106" d="M203.178,141.659l47.092-123.4h-7.043l-47.09,123.4Z" transform="translate(132.77 12.363)" fill="#f9f3e9"/>
  </g>
</svg>
