<?xml version="1.0" encoding="utf-8"?>
<!-- Generator: Adobe Illustrator 25.0.0, SVG Export Plug-In . SVG Version: 6.00 Build 0)  -->
<svg version="1.1" id="레이어_1" xmlns="http://www.w3.org/2000/svg" xmlns:xlink="http://www.w3.org/1999/xlink" x="0px"
	 y="0px" viewBox="0 0 102.11 30" enable-background="new 0 0 102.11 30" xml:space="preserve">
<g>
	<path fill-rule="evenodd" clip-rule="evenodd" fill="#FFDC00" d="M3.02,26.98h14.89V3.02H3.02V26.98L3.02,26.98L3.02,26.98z M0,0
		h20.94v30H0V0L0,0L0,0z"/>
	<path fill-rule="evenodd" clip-rule="evenodd" fill="#FFFFFF" d="M34.85,13.46h-1.3c-1.7-2.4-3.39-4.79-5.07-7.49h-0.01v7.49h-1.43
		V3.02h1.3c1.7,2.39,3.39,4.76,5.06,7.44h0.03V3.02h1.43V13.46L34.85,13.46L34.85,13.46z"/>
	<path fill-rule="evenodd" clip-rule="evenodd" fill="#FFFFFF" d="M38.93,3.02l-3.61,10.44h1.55l0.91-2.85h3.15l0.82,2.85h2
		L40.43,3.02H38.93L38.93,3.02L38.93,3.02z M38.25,9.33c0.42-1.37,0.83-2.64,1.21-4.25h0.03c0.42,1.61,0.79,2.88,1.18,4.25H38.25
		L38.25,9.33L38.25,9.33z"/>
	<polygon fill-rule="evenodd" clip-rule="evenodd" fill="#FFFFFF" points="45.44,13.46 45.44,4.42 42.69,4.42 42.69,3.02 
		49.97,3.02 49.97,4.42 47.23,4.42 47.23,13.46 45.44,13.46 45.44,13.46 	"/>
	<polygon fill-rule="evenodd" clip-rule="evenodd" fill="#FFFFFF" points="50.55,3.02 52.33,3.02 52.33,13.46 50.55,13.46 
		50.55,3.02 50.55,3.02 	"/>
	<path fill-rule="evenodd" clip-rule="evenodd" fill="#FFFFFF" d="M57.85,13.64c2.73,0,4.43-2.43,4.43-5.55
		c0-2.92-1.88-5.25-4.43-5.25c-2.55,0-4.44,2.33-4.44,5.25C53.41,11.21,55.12,13.64,57.85,13.64L57.85,13.64L57.85,13.64z
		 M57.85,12.14c-1.87,0-2.52-2.06-2.52-4.06c0-1.92,0.75-3.76,2.52-3.76c1.77,0,2.52,1.84,2.52,3.76
		C60.37,10.09,59.71,12.14,57.85,12.14L57.85,12.14L57.85,12.14z"/>
	<path fill-rule="evenodd" clip-rule="evenodd" fill="#FFFFFF" d="M71.18,13.46h-1.3c-1.7-2.4-3.39-4.79-5.07-7.49H64.8v7.49h-1.43
		V3.02h1.3c1.7,2.39,3.39,4.76,5.05,7.44h0.03V3.02h1.43V13.46L71.18,13.46L71.18,13.46z"/>
	<path fill-rule="evenodd" clip-rule="evenodd" fill="#FFFFFF" d="M75.27,3.02l-3.61,10.44h1.55l0.91-2.85h3.15l0.82,2.85h2
		L76.76,3.02H75.27L75.27,3.02L75.27,3.02z M74.59,9.33C75,7.95,75.42,6.69,75.8,5.07h0.03c0.42,1.61,0.79,2.88,1.18,4.25H74.59
		L74.59,9.33L74.59,9.33z"/>
	<polygon fill-rule="evenodd" clip-rule="evenodd" fill="#FFFFFF" points="80.61,3.02 82.39,3.02 82.39,12.06 85.92,12.06 
		85.92,13.46 80.61,13.46 80.61,3.02 80.61,3.02 	"/>
	<path fill-rule="evenodd" clip-rule="evenodd" fill="#FFFFFF" d="M33.75,22.19v4.31c-0.96,0.37-1.96,0.64-2.97,0.64
		c-3.07,0-5.01-2.39-5.01-5.46c0-2.85,1.94-5.34,5.07-5.34c0.97,0,1.94,0.36,2.54,0.81l-0.58,1.24c-0.48-0.3-1.22-0.55-1.91-0.55
		c-1.91,0-3.21,1.51-3.21,3.88c0,2.48,1.49,3.94,3.03,3.94c0.48,0,0.88-0.06,1.25-0.25v-3.21H33.75L33.75,22.19L33.75,22.19z"/>
	<polygon fill-rule="evenodd" clip-rule="evenodd" fill="#FFFFFF" points="40.15,17.93 37.16,17.93 37.16,20.79 40.08,20.79 
		40.08,22.19 37.16,22.19 37.16,25.56 40.68,25.56 40.68,26.97 35.37,26.97 35.37,16.52 40.15,16.52 40.15,17.93 40.15,17.93 	"/>
	<path fill-rule="evenodd" clip-rule="evenodd" fill="#FFFFFF" d="M45.67,27.15c2.73,0,4.43-2.43,4.43-5.55
		c0-2.92-1.88-5.25-4.43-5.25c-2.55,0-4.43,2.33-4.43,5.25C41.23,24.71,42.93,27.15,45.67,27.15L45.67,27.15L45.67,27.15z
		 M45.67,25.65c-1.87,0-2.52-2.06-2.52-4.06c0-1.92,0.75-3.76,2.52-3.76c1.77,0,2.52,1.84,2.52,3.76
		C48.18,23.6,47.53,25.65,45.67,25.65L45.67,25.65L45.67,25.65z"/>
	<path fill-rule="evenodd" clip-rule="evenodd" fill="#FFFFFF" d="M58.69,22.19v4.31c-0.96,0.37-1.95,0.64-2.97,0.64
		c-3.07,0-5.01-2.39-5.01-5.46c0-2.85,1.94-5.34,5.07-5.34c0.97,0,1.94,0.36,2.53,0.81l-0.58,1.24c-0.48-0.3-1.22-0.55-1.91-0.55
		c-1.91,0-3.21,1.51-3.21,3.88c0,2.48,1.49,3.94,3.03,3.94c0.48,0,0.88-0.06,1.25-0.25v-3.21H58.69L58.69,22.19L58.69,22.19z"/>
	<path fill-rule="evenodd" clip-rule="evenodd" fill="#FFFFFF" d="M66.65,26.97l-2.11-4.32c1.15-0.61,1.81-1.85,1.81-3.11
		c0-2.03-1.24-3.01-3.24-3.01h-2.79v10.44h1.79v-3.94h0.8l1.68,3.94H66.65L66.65,26.97L66.65,26.97z M62.12,17.93h0.79
		c1.06,0,1.65,0.61,1.65,1.68c0,1.4-0.85,2.03-1.7,2.07c-0.18,0.02-0.6,0.03-0.74,0.05V17.93L62.12,17.93L62.12,17.93z"/>
	<path fill-rule="evenodd" clip-rule="evenodd" fill="#FFFFFF" d="M70.29,16.52l-3.61,10.44h1.55l0.91-2.85h3.15l0.82,2.85h2
		l-3.33-10.44H70.29L70.29,16.52L70.29,16.52z M69.61,22.84c0.42-1.38,0.83-2.64,1.21-4.25h0.03c0.42,1.61,0.79,2.88,1.18,4.25
		H69.61L69.61,22.84L69.61,22.84z"/>
	<path fill-rule="evenodd" clip-rule="evenodd" fill="#FFFFFF" d="M78.22,21.69c-0.19,0.02-0.62,0.03-0.75,0.04v-3.8h0.8
		c1.04,0,1.64,0.61,1.64,1.68C79.91,21.02,79.07,21.64,78.22,21.69L78.22,21.69L78.22,21.69z M78.47,16.52h-2.79v10.44h1.79v-3.94
		h0.8c2.13,0,3.43-1.73,3.43-3.49C81.7,17.51,80.47,16.52,78.47,16.52L78.47,16.52L78.47,16.52z"/>
	<polygon fill-rule="evenodd" clip-rule="evenodd" fill="#FFFFFF" points="90,26.97 88.21,26.97 88.21,21.94 84.49,21.94 
		84.49,26.97 82.72,26.97 82.72,16.52 84.49,16.52 84.49,20.54 88.21,20.54 88.21,16.55 90,16.55 90,26.97 90,26.97 	"/>
	<polygon fill-rule="evenodd" clip-rule="evenodd" fill="#FFFFFF" points="91.71,16.52 93.49,16.52 93.49,26.97 91.71,26.97 
		91.71,16.52 91.71,16.52 	"/>
	<path fill-rule="evenodd" clip-rule="evenodd" fill="#FFFFFF" d="M101.54,18.42c-0.43-0.27-1.15-0.58-1.84-0.58
		c-1.82,0-3.15,1.51-3.15,3.88c0,2.48,1.46,3.94,3.19,3.94c0.69,0,1.33-0.22,1.79-0.52l0.49,1.3c-0.54,0.37-1.49,0.72-2.36,0.72
		c-3.07,0-5.01-2.39-5.01-5.46c0-2.85,1.92-5.34,5.04-5.34c0.93,0,1.79,0.39,2.4,0.81L101.54,18.42L101.54,18.42L101.54,18.42z"/>
</g>
</svg>
