<svg xmlns="http://www.w3.org/2000/svg" width="147.51" height="39.207" viewBox="0 0 147.51 39.207">
  <g id="그룹_50" data-name="그룹 50" transform="translate(-1240 -2104)">
    <path id="패스_21" data-name="패스 21" d="M22.43,27.42a6.9,6.9,0,0,0-5.288-2.432c-4.067,0-6.991,3.556-6.991,7.781a7.553,7.553,0,0,0,4.164,7.112,6.909,6.909,0,0,0,2.948.608,7.19,7.19,0,0,0,5.41-2.249L28.2,44.988c-2.568,2.484-7.011,3.891-11.185,3.891C7.334,48.878,0,42.577,0,32.769c0-9.29,6.839-16.108,16.959-16.108,3.472,0,8.365,1.188,11.246,4.073Z" transform="translate(1240 2094.329)" fill="#fff"/>
    <path id="패스_22" data-name="패스 22" d="M83.981,16.661c-9.406,0-16.793,6.439-16.793,16.046s7.387,16.106,16.793,16.106,16.792-6.5,16.792-16.106S93.386,16.661,83.981,16.661m0,23.885c-4.506,0-7.127-3.536-7.127-7.839s2.621-7.779,7.127-7.779,7.127,3.477,7.127,7.779-2.621,7.839-7.127,7.839" transform="translate(1201.001 2094.329)" fill="#fff"/>
    <path id="패스_23" data-name="패스 23" d="M255.443,33.134c0,.406-.021,2.006-.061,2.371H233.439c.306,3.229,3.579,5.714,7.234,5.714a7.947,7.947,0,0,0,6.686-3.161l6.93,4.377c-3.052,4.446-8.55,6.443-13.738,6.443-9.564,0-16.655-6.139-16.655-15.987,0-9.607,6.906-16.23,16.352-16.23,9.364,0,15.2,6.745,15.2,16.473m-9.179-3.83c0-3.325-2.307-5.775-6.195-5.775-3.792,0-6.468,2.627-6.631,5.775Z" transform="translate(1110.041 2094.329)" fill="#fff"/>
    <path id="패스_24" data-name="패스 24" d="M314.453,15.079V26.973c0,3.009,1.081,4.271,3.769,4.271a8.724,8.724,0,0,0,2.918-.487l.122,7.295a22.789,22.789,0,0,1-5.775.912c-6.784,0-10.759-2.977-10.759-10.787v-13.1h-4.863V7.663h4.8V0h9.787V7.663h7.112v7.416Z" transform="translate(1065.945 2104)" fill="#fff"/>
    <path id="패스_25" data-name="패스 25" d="M156.938,49.136,168.72,18.264h-1.762L160.951,34l-6.007-15.74h-1.762l6.888,18.048-.809,2.121-7.7-20.169H149.8l8.578,22.477-.809,2.12-9.387-24.6h-1.762L156.69,45.17l-.809,2.121L144.8,18.264h-1.762l11.781,30.872Z" transform="translate(1156.972 2093.399)" fill="#fff"/>
    <path id="패스_26" data-name="패스 26" d="M181.784,49.136l11.781-30.872H191.8L180.022,49.136Z" transform="translate(1135.506 2093.399)" fill="#fff"/>
    <path id="패스_27" data-name="패스 27" d="M189.841,49.136l11.782-30.872h-1.762L188.08,49.136Z" transform="translate(1130.83 2093.399)" fill="#fff"/>
    <path id="패스_28" data-name="패스 28" d="M197.9,49.136,209.68,18.264h-1.762L196.137,49.136Z" transform="translate(1126.153 2093.399)" fill="#fff"/>
  </g>
</svg>
