<svg xmlns="http://www.w3.org/2000/svg" width="30.583" height="23.834" viewBox="0 0 30.583 23.834">
  <path id="패스_84142" data-name="패스 84142" d="M32.05-59.792c-6.833,3-11.083,8.833-11.083,15.416,0,5,3.417,8.417,7.667,8.417a6.586,6.586,0,0,0,6.833-6.5c0-3.833-2.5-6.417-6-6.25-.75,0-.833-.417-.667-1.083.583-2.583,3.083-5.167,6.167-6.667Zm-16.083,0c-6.833,3-11.083,8.833-11.083,15.416,0,5,3.417,8.417,7.667,8.417a6.586,6.586,0,0,0,6.833-6.5c0-3.833-2.5-6.417-6-6.25-.75,0-.833-.417-.667-1.083.583-2.583,3.083-5.167,6.167-6.667Z" transform="translate(-4.884 59.793)" fill="#26a6cc"/>
</svg>
