<svg id="지도02_08.부산" xmlns="http://www.w3.org/2000/svg" xmlns:xlink="http://www.w3.org/1999/xlink" width="512.085" height="491.639" viewBox="0 0 512.085 491.639">
  <defs>
    <clipPath id="clip-path">
      <rect id="사각형_251" data-name="사각형 251" width="512.085" height="491.639" fill="none"/>
    </clipPath>
  </defs>
  <g id="그룹_693" data-name="그룹 693" clip-path="url(#clip-path)">
    <path id="패스_2042" data-name="패스 2042" d="M525.662,84.806c-.7.819-.81.581-2.562,4.428s-6.047,2.676-7.562,2.676-3.5,1.981-6.524,2.1-5.7-1.171-6.514-2.219-6.285-4.771-11.762-5.352-7.676,1.981-8.381,4.657-.933,22.009-3.724,30.618-2.448,35.4-2.676,42.151-4.19,15.485-5.943,19.209-.924,6.171-1.629,9.657-8.733,11.762-10.828,14.095-1.5,5.819,1.752,10.009,4.533,9.543,5.238,13.5,4.771,8.266,4.771,11.876-.581,6.752-3.724,8.495-12.695-.933-14.79-2.209-10.7-1.743-17.342-.933a5.76,5.76,0,0,0-.609.114c-1.667-4.962-3.762-10.523-4.057-11.514a27.948,27.948,0,0,1-1.048-9.428c.171-4.714-5.067-4.371-6.99-4.19s-3.314,2.79-3.486,5.238.514,6.628-2.628,8.381a6.506,6.506,0,0,1-7.857-1.4,20.729,20.729,0,0,1-3.143-6.809c-.7-2.619-3.5-1.752-8.209-1.752s-7.152-1.743-8.2-2.619-5.59-4.362-6.286-8.2,1.914-6.99,4.362-9.781,5.59-6.809,5.59-9.609-1.752-6.638-5.59-9.076a18.712,18.712,0,0,1-7.162-8.209c-.876-2.276-.352-6.286-3.314-7.857s-6.114-.524-8.381-1.924a6.23,6.23,0,0,1-.657-.457,8.938,8.938,0,0,1-1.533-1.476,15.648,15.648,0,0,1-2.876-6.1c-1.048-4.009-3.324-6.1-8.209-4.533s-9.952-.181-11-2.619-.352-7.343,1.571-11.352,1.048-6.638.524-12.752,2.79-10.133,3.314-15.371-1.743-8.381-8.9-9.428A65.754,65.754,0,0,1,330,101.558a2.1,2.1,0,0,0,.19-.219c1.39-1.743-.352-3.486-.467-7.219s1.981-7.447,1.981-10.009,1.048-5.124,4.657-7.1,10.009-5.124,11.285-10.714-2.209-5.819-3.486-8.724,5.466-6.057,8.962-10.247.352-7.685-.819-13.742,8.619-3.724,11.762-3.371a32.8,32.8,0,0,1,16.419,7.8c5.7,5.238,11.762,6.286,19.438,5.124S412.5,35.217,414.6,31.95s2.9-16.18,2.1-20.028-3.143-3.371-3.5-5.581,6.866-.933,10.714-.933,10.009,2.1,11.876,4.3,7.562,1.514,13.971,1.867,7.219-3.5,7.8-4.781,3.143-1.276,4.533-1.162,5.009-1.629,6.171-3.143S471.063.4,474.9.513s5.819,2.914,6.4,3.267,14.209,15.6,14.209,15.6,3.609,3.5,3.257,7.447-2.324,4.428-3.257,5.362-.933,3.609,1.048,4.3,2.914,1.867,2.324,3.724-.81,12.809-1.162,15.142,2.333,1.276,3.143,1.971.467,1.981.7,2.914,6.628.581,8.724.581,6.524.238,9.085,3.962,4.771,3.724,6.981,9.543,0,9.666-.7,10.476" transform="translate(-15.71 -0.024)" fill="#fffaf2" stroke="#f9f3e9" stroke-width="2"/>
    <path id="패스_2043" data-name="패스 2043" d="M525.662,84.806c-.7.819-.81.581-2.562,4.428s-6.047,2.676-7.562,2.676-3.5,1.981-6.524,2.1-5.7-1.171-6.514-2.219-6.285-4.771-11.762-5.352-7.676,1.981-8.381,4.657-.933,22.009-3.724,30.618-2.448,35.4-2.676,42.151-4.19,15.485-5.943,19.209-.924,6.171-1.629,9.657-8.733,11.762-10.828,14.095-1.5,5.819,1.752,10.009,4.533,9.543,5.238,13.5,4.771,8.266,4.771,11.876-.581,6.752-3.724,8.495-12.695-.933-14.79-2.209-10.7-1.743-17.342-.933a5.76,5.76,0,0,0-.609.114c-1.667-4.962-3.762-10.523-4.057-11.514a27.948,27.948,0,0,1-1.048-9.428c.171-4.714-5.067-4.371-6.99-4.19s-3.314,2.79-3.486,5.238.514,6.628-2.628,8.381a6.506,6.506,0,0,1-7.857-1.4,20.729,20.729,0,0,1-3.143-6.809c-.7-2.619-3.5-1.752-8.209-1.752s-7.152-1.743-8.2-2.619-5.59-4.362-6.286-8.2,1.914-6.99,4.362-9.781,5.59-6.809,5.59-9.609-1.752-6.638-5.59-9.076a18.712,18.712,0,0,1-7.162-8.209c-.876-2.276-.352-6.286-3.314-7.857s-6.114-.524-8.381-1.924a6.23,6.23,0,0,1-.657-.457,8.938,8.938,0,0,1-1.533-1.476,15.648,15.648,0,0,1-2.876-6.1c-1.048-4.009-3.324-6.1-8.209-4.533s-9.952-.181-11-2.619-.352-7.343,1.571-11.352,1.048-6.638.524-12.752,2.79-10.133,3.314-15.371-1.743-8.381-8.9-9.428A65.754,65.754,0,0,1,330,101.558a2.1,2.1,0,0,0,.19-.219c1.39-1.743-.352-3.486-.467-7.219s1.981-7.447,1.981-10.009,1.048-5.124,4.657-7.1,10.009-5.124,11.285-10.714-2.209-5.819-3.486-8.724,5.466-6.057,8.962-10.247.352-7.685-.819-13.742,8.619-3.724,11.762-3.371a32.8,32.8,0,0,1,16.419,7.8c5.7,5.238,11.762,6.286,19.438,5.124S412.5,35.217,414.6,31.95s2.9-16.18,2.1-20.028-3.143-3.371-3.5-5.581,6.866-.933,10.714-.933,10.009,2.1,11.876,4.3,7.562,1.514,13.971,1.867,7.219-3.5,7.8-4.781,3.143-1.276,4.533-1.162,5.009-1.629,6.171-3.143S471.063.4,474.9.513s5.819,2.914,6.4,3.267,14.209,15.6,14.209,15.6,3.609,3.5,3.257,7.447-2.324,4.428-3.257,5.362-.933,3.609,1.048,4.3,2.914,1.867,2.324,3.724-.81,12.809-1.162,15.142,2.333,1.276,3.143,1.971.467,1.981.7,2.914,6.628.581,8.724.581,6.524.238,9.085,3.962,4.771,3.724,6.981,9.543S526.357,84,525.662,84.806Z" transform="translate(-15.71 -0.024)" fill="#fff" stroke="#f9f3e9" stroke-miterlimit="10" stroke-width="2"/>
    <path id="패스_2044" data-name="패스 2044" d="M362.369,173.526c-.276,4.39-.962,8.762-2.314,10.581-4.019,5.419-10.476,11.7-16.59,13.8s-5.762,8.028-5.943,9.952-3.314,7.333-5.762,8.9a2.85,2.85,0,0,1-.381.21,1.043,1.043,0,0,1-.143.076c-2.962,1.4-10.685,2.171-13.79-.286a62.4,62.4,0,0,0-8.562-5.238c-.867-.524-6.809-7.857-13.095-8.209-2.752-.152-9.962.219-15.676.514-.143-2.676-2.5-3.3-8.543-5.7-6.752-2.676-4.3-8.733-4.076-11.295s.238-4.886-1.162-6.866-1.4-5.238-1.743-7.447-2.448-3.5-4.314-5.476-2.438-4.771-2.562-7.219,1.867-2.209,2.686-2.438,1.276-1.4,1.276-3.028,1.4-1.743,3.028-2.676,2.676-2.1,2.1-4.781c-.124-.981-.562-4.762-1.019-9.076.343-.19.686-.39,1.019-.59,2.676-1.629,8.733-11.523,9.895-14.428a3.563,3.563,0,0,1,4.19-2.448,3.947,3.947,0,0,1,1.743,1.629c.124.352,3.5,3.257,6.409,3.371a8.743,8.743,0,0,0,7.219-3.371c1.867-2.209,4.886-6.752,9.2-10.476s15.247-3.143,16.295-3.143a7.4,7.4,0,0,0,4.267-1.267,4.558,4.558,0,0,0,.552-.5,65.754,65.754,0,0,0,8.685,3.276c7.162,1.048,9.428,4.19,8.9,9.428s-3.838,9.257-3.314,15.371,1.4,8.733-.524,12.752-2.619,8.9-1.571,11.352,6.114,4.19,11,2.619,7.162.524,8.209,4.533a15.648,15.648,0,0,0,2.876,6.1,8.938,8.938,0,0,0,1.533,1.476" transform="translate(-12.279 -5.08)" fill="#fffaf2" stroke="#f9f3e9" stroke-width="2"/>
    <path id="패스_2045" data-name="패스 2045" d="M362.369,173.526c-.276,4.39-.962,8.762-2.314,10.581-4.019,5.419-10.476,11.7-16.59,13.8s-5.762,8.028-5.943,9.952-3.314,7.333-5.762,8.9a2.85,2.85,0,0,1-.381.21,1.043,1.043,0,0,1-.143.076c-2.962,1.4-10.685,2.171-13.79-.286a62.4,62.4,0,0,0-8.562-5.238c-.867-.524-6.809-7.857-13.095-8.209-2.752-.152-9.962.219-15.676.514-.143-2.676-2.5-3.3-8.543-5.7-6.752-2.676-4.3-8.733-4.076-11.295s.238-4.886-1.162-6.866-1.4-5.238-1.743-7.447-2.448-3.5-4.314-5.476-2.438-4.771-2.562-7.219,1.867-2.209,2.686-2.438,1.276-1.4,1.276-3.028,1.4-1.743,3.028-2.676,2.676-2.1,2.1-4.781c-.124-.981-.562-4.762-1.019-9.076.343-.19.686-.39,1.019-.59,2.676-1.629,8.733-11.523,9.895-14.428a3.563,3.563,0,0,1,4.19-2.448,3.947,3.947,0,0,1,1.743,1.629c.124.352,3.5,3.257,6.409,3.371a8.743,8.743,0,0,0,7.219-3.371c1.867-2.209,4.886-6.752,9.2-10.476s15.247-3.143,16.295-3.143a7.4,7.4,0,0,0,4.267-1.267,4.558,4.558,0,0,0,.552-.5,65.754,65.754,0,0,0,8.685,3.276c7.162,1.048,9.428,4.19,8.9,9.428s-3.838,9.257-3.314,15.371,1.4,8.733-.524,12.752-2.619,8.9-1.571,11.352,6.114,4.19,11,2.619,7.162.524,8.209,4.533a15.648,15.648,0,0,0,2.876,6.1A8.938,8.938,0,0,0,362.369,173.526Z" transform="translate(-12.279 -5.08)" fill="#fff" stroke="#f9f3e9" stroke-miterlimit="10" stroke-width="2"/>
    <path id="패스_2046" data-name="패스 2046" d="M277.441,206.411c-.4,3.571-5.067,8.638-6.028,9.952-.838,1.143-10.076,11.695-10.828,18.676a6.452,6.452,0,0,0-.048.733c-.762-.324-1.562-.667-2.352-.99l.8,1.8a15.347,15.347,0,0,0-4.771.952c-2.276.876-13.619,7.857-15.2,8.562a3.793,3.793,0,0,1-1.324.171c-.324,0-.7,0-1.1-.019a137.854,137.854,0,0,1-13.819-1.9c-2.276-.41-12.057-3.076-20.361-5.362,4.467-5.362,8.466-10.3,9.476-12.038,2.219-3.838,3.257-7.219,3.143-13.152-.038-2.124-1-9.609-2.048-17.59a10.3,10.3,0,0,0,1-.924c.19-.2.381-.4.562-.609,6.352-7.057,9.057-18.39,11.314-22.914,2.333-4.657,2.209-13.857,2.676-19.561s2.448-7.219,5.238-8.847,3.724-2.676,9.666-3.143,5.476,2.1,7.219,4.428,5.352-.7,6.4-1.867c.914-1.019,3.628-2.038,6.086-3.371.457,4.314.9,8.095,1.019,9.076.581,2.686-.467,3.848-2.1,4.781s-3.028,1.048-3.028,2.676-.467,2.79-1.276,3.028-2.8,0-2.686,2.438.7,5.238,2.562,7.219,3.962,3.267,4.314,5.476.343,5.466,1.743,7.447,1.4,4.314,1.162,6.866-2.676,8.619,4.076,11.295c6.047,2.4,8.4,3.019,8.543,5.7a6.305,6.305,0,0,1-.038,1.019" transform="translate(-9.645 -6.642)" fill="#fffaf2" stroke="#f9f3e9" stroke-width="2"/>
    <path id="패스_2047" data-name="패스 2047" d="M277.441,206.411c-.4,3.571-5.067,8.638-6.028,9.952-.838,1.143-10.076,11.695-10.828,18.676a6.452,6.452,0,0,0-.048.733c-.762-.324-1.562-.667-2.352-.99l.8,1.8a15.347,15.347,0,0,0-4.771.952c-2.276.876-13.619,7.857-15.2,8.562a3.793,3.793,0,0,1-1.324.171c-.324,0-.7,0-1.1-.019a137.854,137.854,0,0,1-13.819-1.9c-2.276-.41-12.057-3.076-20.361-5.362,4.467-5.362,8.466-10.3,9.476-12.038,2.219-3.838,3.257-7.219,3.143-13.152-.038-2.124-1-9.609-2.048-17.59a10.3,10.3,0,0,0,1-.924c.19-.2.381-.4.562-.609,6.352-7.057,9.057-18.39,11.314-22.914,2.333-4.657,2.209-13.857,2.676-19.561s2.448-7.219,5.238-8.847,3.724-2.676,9.666-3.143,5.476,2.1,7.219,4.428,5.352-.7,6.4-1.867c.914-1.019,3.628-2.038,6.086-3.371.457,4.314.9,8.095,1.019,9.076.581,2.686-.467,3.848-2.1,4.781s-3.028,1.048-3.028,2.676-.467,2.79-1.276,3.028-2.8,0-2.686,2.438.7,5.238,2.562,7.219,3.962,3.267,4.314,5.476.343,5.466,1.743,7.447,1.4,4.314,1.162,6.866-2.676,8.619,4.076,11.295c6.047,2.4,8.4,3.019,8.543,5.7A6.305,6.305,0,0,1,277.441,206.411Z" transform="translate(-9.645 -6.642)" fill="#fff" stroke="#f9f3e9" stroke-miterlimit="10" stroke-width="2"/>
    <path id="패스_2048" data-name="패스 2048" d="M202.27,229.786c-1.01,1.733-5.009,6.676-9.476,12.038-.1.133-.219.267-.333.4C187.147,248.6,181.28,255.5,179.1,258.309c-4.076,5.238-3.371,8.028-3.371,10.943s.343,3.5-2.8,8.152-2.79,37.485-3.143,40.751a28.12,28.12,0,0,1-2.057,7.7c-.01.029-.029.067-.038.1a2.585,2.585,0,0,1-.1.238c-1.3,2.429-8.133,5.743-10.723,7.1-2.676,1.39-9.428,8.724-15.133,18.742-2.229,3.914-2.638,13.676-2.486,22.59-.257-.01-.514-.019-.771-.01-4.657.114-2.562,7.685-2.676,15.257s-3.5,10.362-6.057,12.333-2.448,3.847-3.257,5.828-5.124,4.886-7.924,4.657-8.143-2.8-9.314-3.381a37.562,37.562,0,0,0-9.781-2.324c-4.771-.59-13.152-2.8-17.228-3.381s-5.352,1.629-5.819,4.3.467,19.323-.114,25.38-.581,11.409-.581,16.066-3.5,11.066-3.848,16.885a25.9,25.9,0,0,1-4.9,13.152c-1.743,2.333-3.486,5.7-7.447,14.323S45.913,500.578,43,500.349s-9.314-1.4-12.809-7.333-4.533-12.923-6.171-17.114-7.1-13.619-8.962-18.857S4.343,440.856,3.067,436.2.971,427.237,1.2,425.37s-.581-5.59-.7-9.781,2-8.5,2.581-12.114-1.514-8.028,7.8-11.752,20.6-10.476,24.209-13.857,1.514-11.99,2.686-16.533,5.819-2.676,5.819-2.676,4.419,1.514,5.59-1.743a16.006,16.006,0,0,1,5-6.762c1.638-1.39,1.4-5-1.629-7.1s-3.371-4.657-5.467-7.8-1.514-6.638-2.448-10.362-8.495-2.8-11.409-2.8-7.571-2.1-9.314-4.19S13.333,306.5,11,303.822a12.888,12.888,0,0,1-3.028-9.666c.238-3.724,4.771-4.067,12.695-3.838A132.07,132.07,0,0,1,40.1,292.651c3.838.7,8.152,1.857,12.571-3.733s6.057-4.19,7.8-3.838,4.9-.352,6.286-2.448,5.362-3.724,7.571-2.448,5.238,3.029,4.19,9.085.933,9.895,2.248,10.828,4.733.114,5.428-3.028,2.1-4.543,4.076-9.076-2.79-8.038-2.79-8.038-5.828-5-6.638-8.381,5.009-2.324,8.619-2.324,3.257-3.848,3.143-10.476a9.581,9.581,0,0,0-5.7-8.857,10.358,10.358,0,0,1-6.057-9.543c0-6.99,5.7-9.781,10.476-15.133s8.495-2.914,15.828-3.733,9.781-4.533,10.828-6.286,6.057-2.1,6.99-.343,3.5,4.076,4.19,4.076,3.257,0,9.657-6.524,16.076-4.771,16.076-4.771,2.438.581,22.352-.467c15.733-.829,23.542-6.019,26.123-8.152,1.048,7.981,2.009,15.466,2.048,17.59.114,5.933-.924,9.314-3.143,13.152" transform="translate(-0.024 -9.484)" fill="#fffaf2" stroke="#f9f3e9" stroke-width="2"/>
    <path id="패스_2049" data-name="패스 2049" d="M202.27,229.786c-1.01,1.733-5.009,6.676-9.476,12.038-.1.133-.219.267-.333.4C187.147,248.6,181.28,255.5,179.1,258.309c-4.076,5.238-3.371,8.028-3.371,10.943s.343,3.5-2.8,8.152-2.79,37.485-3.143,40.751a28.12,28.12,0,0,1-2.057,7.7c-.01.029-.029.067-.038.1a2.585,2.585,0,0,1-.1.238c-1.3,2.429-8.133,5.743-10.723,7.1-2.676,1.39-9.428,8.724-15.133,18.742-2.229,3.914-2.638,13.676-2.486,22.59-.257-.01-.514-.019-.771-.01-4.657.114-2.562,7.685-2.676,15.257s-3.5,10.362-6.057,12.333-2.448,3.847-3.257,5.828-5.124,4.886-7.924,4.657-8.143-2.8-9.314-3.381a37.562,37.562,0,0,0-9.781-2.324c-4.771-.59-13.152-2.8-17.228-3.381s-5.352,1.629-5.819,4.3.467,19.323-.114,25.38-.581,11.409-.581,16.066-3.5,11.066-3.848,16.885a25.9,25.9,0,0,1-4.9,13.152c-1.743,2.333-3.486,5.7-7.447,14.323S45.913,500.578,43,500.349s-9.314-1.4-12.809-7.333-4.533-12.923-6.171-17.114-7.1-13.619-8.962-18.857S4.343,440.856,3.067,436.2.971,427.237,1.2,425.37s-.581-5.59-.7-9.781,2-8.5,2.581-12.114-1.514-8.028,7.8-11.752,20.6-10.476,24.209-13.857,1.514-11.99,2.686-16.533,5.819-2.676,5.819-2.676,4.419,1.514,5.59-1.743a16.006,16.006,0,0,1,5-6.762c1.638-1.39,1.4-5-1.629-7.1s-3.371-4.657-5.467-7.8-1.514-6.638-2.448-10.362-8.495-2.8-11.409-2.8-7.571-2.1-9.314-4.19S13.333,306.5,11,303.822a12.888,12.888,0,0,1-3.028-9.666c.238-3.724,4.771-4.067,12.695-3.838A132.07,132.07,0,0,1,40.1,292.651c3.838.7,8.152,1.857,12.571-3.733s6.057-4.19,7.8-3.838,4.9-.352,6.286-2.448,5.362-3.724,7.571-2.448,5.238,3.029,4.19,9.085.933,9.895,2.248,10.828,4.733.114,5.428-3.028,2.1-4.543,4.076-9.076-2.79-8.038-2.79-8.038-5.828-5-6.638-8.381,5.009-2.324,8.619-2.324,3.257-3.848,3.143-10.476a9.581,9.581,0,0,0-5.7-8.857,10.358,10.358,0,0,1-6.057-9.543c0-6.99,5.7-9.781,10.476-15.133s8.495-2.914,15.828-3.733,9.781-4.533,10.828-6.286,6.057-2.1,6.99-.343,3.5,4.076,4.19,4.076,3.257,0,9.657-6.524,16.076-4.771,16.076-4.771,2.438.581,22.352-.467c15.733-.829,23.542-6.019,26.123-8.152,1.048,7.981,2.009,15.466,2.048,17.59C205.527,222.567,204.489,225.948,202.27,229.786Z" transform="translate(-0.024 -9.484)" fill="#fffaf2" stroke="#f9f3e9" stroke-miterlimit="10" stroke-width="2"/>
    <path id="패스_2050" data-name="패스 2050" d="M232.5,378.92c0,10.3-3.838,6.99-6.286,9.781s.181,12.571,3.143,19.9c.838,2.086,1.086,8.438.971,14.19q-.471-.243-.971-.514c-.029-.01-.048-.029-.076-.038-3.838-1.99-9.257,3.067-12.619,3.409s-6.514-1.971-7.219-3.724-5-8.266-6.4-9.314a3.929,3.929,0,0,0-5.009.467c-1.39,1.4-1.048,3.143,2.562,7.571s1.048,6.866.124,8.609-2.8,14.209-5.476,15.257-6.171-2.333-8.266-4.19-2.676-5.362-2.914-9.314-3.143-5.009-3.486-5.59-3.609-4.3-3.733-6.981-2.086-6.762-1.857-10.714-2.914-18.276-2.914-22.818,3.028-9.076,4.076-10.133,1.4-5.7.933-6.752-2.1-1.971-4.428.124-9.076,6.628-11.171,8.371-1.286,3.848-4.3,5.362c-2.857,1.429-6.657-.771-10.99-.924-.152-8.914.257-18.676,2.486-22.59,5.7-10.019,12.457-17.352,15.133-18.742,2.59-1.352,9.428-4.667,10.723-7.1,5.209,4.162,10.171,8.171,11.342,9.3,3.667,3.552,5.59,3.552,8.9,1.981s1.752-4.543,4.628-6.99a17,17,0,0,1,11.266-4.533c.629-.038,1.19-.1,1.7-.181.086-.01.152-.029.229-.038,3.352,3.886,7.8,7.447,8.552,9.762,1.229,3.79,4.9,6.866,6.809,10.19s.352,5.762-.514,7.857,1.571,3.667,3.486,5.067,1.571,3.667,1.571,13.971" transform="translate(-6.964 -15.823)" fill="#fffaf2" stroke="#f9f3e9" stroke-width="2"/>
    <path id="패스_2051" data-name="패스 2051" d="M232.5,378.92c0,10.3-3.838,6.99-6.286,9.781s.181,12.571,3.143,19.9c.838,2.086,1.086,8.438.971,14.19q-.471-.243-.971-.514c-.029-.01-.048-.029-.076-.038-3.838-1.99-9.257,3.067-12.619,3.409s-6.514-1.971-7.219-3.724-5-8.266-6.4-9.314a3.929,3.929,0,0,0-5.009.467c-1.39,1.4-1.048,3.143,2.562,7.571s1.048,6.866.124,8.609-2.8,14.209-5.476,15.257-6.171-2.333-8.266-4.19-2.676-5.362-2.914-9.314-3.143-5.009-3.486-5.59-3.609-4.3-3.733-6.981-2.086-6.762-1.857-10.714-2.914-18.276-2.914-22.818,3.028-9.076,4.076-10.133,1.4-5.7.933-6.752-2.1-1.971-4.428.124-9.076,6.628-11.171,8.371-1.286,3.848-4.3,5.362c-2.857,1.429-6.657-.771-10.99-.924-.152-8.914.257-18.676,2.486-22.59,5.7-10.019,12.457-17.352,15.133-18.742,2.59-1.352,9.428-4.667,10.723-7.1,5.209,4.162,10.171,8.171,11.342,9.3,3.667,3.552,5.59,3.552,8.9,1.981s1.752-4.543,4.628-6.99a17,17,0,0,1,11.266-4.533c.629-.038,1.19-.1,1.7-.181.086-.01.152-.029.229-.038,3.352,3.886,7.8,7.447,8.552,9.762,1.229,3.79,4.9,6.866,6.809,10.19s.352,5.762-.514,7.857,1.571,3.667,3.486,5.067S232.5,368.616,232.5,378.92Z" transform="translate(-6.964 -15.823)" fill="#fff" stroke="#f9f3e9" stroke-miterlimit="10" stroke-width="2"/>
    <path id="패스_2052" data-name="패스 2052" d="M252.352,379.426a2.952,2.952,0,0,0-.552-.048,1.988,1.988,0,0,0-.267.038,7.465,7.465,0,0,0-.79.219v.01c-1.19.429-2.238,1.3-2.819,3.5-.7,2.676-.343,21.19-2.676,26.313s-2.1,12.571-4.3,13.733c-2.019,1.057-4.038.571-7.3-1.114.114-5.752-.133-12.1-.971-14.19-2.962-7.333-5.59-17.114-3.143-19.9s6.286.524,6.286-9.781.352-12.571-1.571-13.971-4.362-2.971-3.486-5.067,2.438-4.543.514-7.857-5.581-6.4-6.809-10.19c-.752-2.314-5.2-5.876-8.552-9.762,3.79-.686,4.352-2.714,6.628-7.114,2.619-5.067,3.5-7.333,5.59-7.333a.627.627,0,0,1,.133.01c.448,4.4,1.371,9.209,3.181,10.114,4.9,2.438,8.6,2.79,10.324.7a7.885,7.885,0,0,1,4.514-2.552c1.438,5.524,3.476,14.228,3.276,18.666-.01.276-.029.533-.057.781a3.924,3.924,0,0,1-.41,1.438c-2.448,4.2-9.076,5.247-9.257,8.733s2.248,9.952,4.971,12.571c1.533,1.476,4.724,6.247,7.076,11.076.162.324.314.657.467.99" transform="translate(-10.288 -15.1)" fill="#fffaf2" stroke="#f9f3e9" stroke-width="2"/>
    <path id="패스_2053" data-name="패스 2053" d="M252.352,379.426a2.952,2.952,0,0,0-.552-.048,1.988,1.988,0,0,0-.267.038,7.465,7.465,0,0,0-.79.219v.01c-1.19.429-2.238,1.3-2.819,3.5-.7,2.676-.343,21.19-2.676,26.313s-2.1,12.571-4.3,13.733c-2.019,1.057-4.038.571-7.3-1.114.114-5.752-.133-12.1-.971-14.19-2.962-7.333-5.59-17.114-3.143-19.9s6.286.524,6.286-9.781.352-12.571-1.571-13.971-4.362-2.971-3.486-5.067,2.438-4.543.514-7.857-5.581-6.4-6.809-10.19c-.752-2.314-5.2-5.876-8.552-9.762,3.79-.686,4.352-2.714,6.628-7.114,2.619-5.067,3.5-7.333,5.59-7.333a.627.627,0,0,1,.133.01c.448,4.4,1.371,9.209,3.181,10.114,4.9,2.438,8.6,2.79,10.324.7a7.885,7.885,0,0,1,4.514-2.552c1.438,5.524,3.476,14.228,3.276,18.666-.01.276-.029.533-.057.781a3.924,3.924,0,0,1-.41,1.438c-2.448,4.2-9.076,5.247-9.257,8.733s2.248,9.952,4.971,12.571c1.533,1.476,4.724,6.247,7.076,11.076C252.047,378.759,252.2,379.093,252.352,379.426Z" transform="translate(-10.288 -15.1)" fill="#fffaf2" stroke="#f9f3e9" stroke-miterlimit="10" stroke-width="2"/>
    <path id="패스_2054" data-name="패스 2054" d="M352.807,351.937c-.933,8.266-7.685,8.495-10.6,8.381s-6.981-2.914-9.771-2.1-6.638,5-10.247,5.124a10.721,10.721,0,0,1-9.666-5.476c-2.209-3.838-6.286-4.771-6.981-5.124s-3.962-.581-5.714-.81-4.3,0-6.514-1.514-3.962-5.009-3.381-6.752-.229-4.3-2.676-3.848a3.253,3.253,0,0,0-.962.352c1.076-8.114,2.543-17.761,3.343-20.018.124-.352.238-.686.343-1.009a2.457,2.457,0,0,0,.076-.248c1.286-4.086,1.076-6.39,2.029-9.571,1.048-3.5,2.448-4.019,5.762-4.543s5.238-.867,6.466-3.667,2.267-4.19,3.838-5.238c1.39-.924,3.324-1.029,3.99-5.838a11.174,11.174,0,0,1,2.467.362c3.028.762,8.152,1.467,8.857,6.7s-.933,6.866,0,9.19.838,2.8,3.914,4.781c1.19.752,7.733,3.286,14.876,5.924.029.076.057.162.086.238a22.193,22.193,0,0,0,3.476,6.057c1.4,1.39,3.5,3.143,4.19,5.819s-.7,3.724.7,7.8,3.019,6.752,2.1,15.019" transform="translate(-13.641 -13.82)" fill="#fffaf2" stroke="#f9f3e9" stroke-width="2"/>
    <path id="패스_2055" data-name="패스 2055" d="M352.807,351.937c-.933,8.266-7.685,8.495-10.6,8.381s-6.981-2.914-9.771-2.1-6.638,5-10.247,5.124a10.721,10.721,0,0,1-9.666-5.476c-2.209-3.838-6.286-4.771-6.981-5.124s-3.962-.581-5.714-.81-4.3,0-6.514-1.514-3.962-5.009-3.381-6.752-.229-4.3-2.676-3.848a3.253,3.253,0,0,0-.962.352c1.076-8.114,2.543-17.761,3.343-20.018.124-.352.238-.686.343-1.009a2.457,2.457,0,0,0,.076-.248c1.286-4.086,1.076-6.39,2.029-9.571,1.048-3.5,2.448-4.019,5.762-4.543s5.238-.867,6.466-3.667,2.267-4.19,3.838-5.238c1.39-.924,3.324-1.029,3.99-5.838a11.174,11.174,0,0,1,2.467.362c3.028.762,8.152,1.467,8.857,6.7s-.933,6.866,0,9.19.838,2.8,3.914,4.781c1.19.752,7.733,3.286,14.876,5.924.029.076.057.162.086.238a22.193,22.193,0,0,0,3.476,6.057c1.4,1.39,3.5,3.143,4.19,5.819s-.7,3.724.7,7.8S353.731,343.671,352.807,351.937Z" transform="translate(-13.641 -13.82)" fill="#fff" stroke="#f9f3e9" stroke-miterlimit="10" stroke-width="2"/>
    <path id="패스_2056" data-name="패스 2056" d="M288.147,320.062c-.1.324-.219.657-.343,1.009-.8,2.257-2.267,11.9-3.343,20.018-1.952,1.038-3.5,3.8-5.9,5.009-2.79,1.39-6.171,1.514-8.152,1.971-1.038.248-1.4,1.7-1.533,3.333a188.352,188.352,0,0,0-17.847-7.152c.029-.248.048-.5.057-.781.2-4.438-1.838-13.142-3.276-18.666a2.177,2.177,0,0,1,.267-.067c.686-.181,1.409-.343,2.19-.524,2.962-.7,7.333-1.048,7.857-7.685s1.924-8.028,3.838-6.981,2.1,4.19,4.9,5.409,5.409,0,7.162,1.571,5.409,4.714,9.076,4.371c.609-.057,2.809-.429,5.057-.838" transform="translate(-11.807 -14.734)" fill="#fffaf2" stroke="#f9f3e9" stroke-width="2"/>
    <path id="패스_2057" data-name="패스 2057" d="M288.147,320.062c-.1.324-.219.657-.343,1.009-.8,2.257-2.267,11.9-3.343,20.018-1.952,1.038-3.5,3.8-5.9,5.009-2.79,1.39-6.171,1.514-8.152,1.971-1.038.248-1.4,1.7-1.533,3.333a188.352,188.352,0,0,0-17.847-7.152c.029-.248.048-.5.057-.781.2-4.438-1.838-13.142-3.276-18.666a2.177,2.177,0,0,1,.267-.067c.686-.181,1.409-.343,2.19-.524,2.962-.7,7.333-1.048,7.857-7.685s1.924-8.028,3.838-6.981,2.1,4.19,4.9,5.409,5.409,0,7.162,1.571,5.409,4.714,9.076,4.371C283.7,320.843,285.9,320.472,288.147,320.062Z" transform="translate(-11.807 -14.734)" fill="#fffaf2" stroke="#f9f3e9" stroke-miterlimit="10" stroke-width="2"/>
    <path id="패스_2058" data-name="패스 2058" d="M270.386,361.946c-6.009,4.667-14.657,10.762-16.342,12.571-.39.429-.714,2.676-.962,5.3-2.352-4.828-5.543-9.6-7.076-11.076-2.724-2.619-5.143-9.076-4.971-12.571s6.809-4.533,9.257-8.733A3.924,3.924,0,0,0,250.7,346a188.356,188.356,0,0,1,17.847,7.152c-.048.59-.057,1.209-.067,1.809-.01.924,0,1.79-.029,2.428a7.981,7.981,0,0,0,1.819,4.409l.114.143" transform="translate(-11.484 -16.486)" fill="#fffaf2" stroke="#f9f3e9" stroke-width="2"/>
    <path id="패스_2059" data-name="패스 2059" d="M270.386,361.946c-6.009,4.667-14.657,10.762-16.342,12.571-.39.429-.714,2.676-.962,5.3-2.352-4.828-5.543-9.6-7.076-11.076-2.724-2.619-5.143-9.076-4.971-12.571s6.809-4.533,9.257-8.733A3.924,3.924,0,0,0,250.7,346a188.356,188.356,0,0,1,17.847,7.152c-.048.59-.057,1.209-.067,1.809-.01.924,0,1.79-.029,2.428a7.981,7.981,0,0,0,1.819,4.409Z" transform="translate(-11.484 -16.486)" fill="#fffaf2" stroke="#f9f3e9" stroke-miterlimit="10" stroke-width="2"/>
    <path id="패스_2060" data-name="패스 2060" d="M318.531,423.971c-2.676.352-2.1,1.629-3.962,1.981s-2.438-.933-5.124-1.048-6.752-6.514-7.8-8.381-2.562-2.209-5.238-2.914-3.724-3.5-5.581-5.933-4.781-2.1-6.171-2.1-5.828-2.1-8.152-5.7-16.19-14.676-16.885-15.485a13.786,13.786,0,0,0-5.467-2.781c-.152-.333-.3-.667-.467-.99.248-2.629.571-4.876.962-5.3,1.686-1.809,10.333-7.9,16.342-12.571a5.762,5.762,0,0,0,3.543,2.438,20.1,20.1,0,0,0,6.171-.467c.7-.238,2.676-1.286,4.076.467s4.419,2.562,8.257,5.114a16.484,16.484,0,0,1,6.286,8.038c.819,2.1,3.5,6.057,10.476,8.152s6.171,5.466,5.59,7.914-5,1.514-6.638,5.009.819,6.514,6.99,8.847,6.981,5,7.333,10.124-1.867,5.247-4.543,5.59" transform="translate(-12.088 -17.284)" fill="#fffaf2" stroke="#f9f3e9" stroke-width="2"/>
    <path id="패스_2061" data-name="패스 2061" d="M318.531,423.971c-2.676.352-2.1,1.629-3.962,1.981s-2.438-.933-5.124-1.048-6.752-6.514-7.8-8.381-2.562-2.209-5.238-2.914-3.724-3.5-5.581-5.933-4.781-2.1-6.171-2.1-5.828-2.1-8.152-5.7-16.19-14.676-16.885-15.485a13.786,13.786,0,0,0-5.467-2.781c-.152-.333-.3-.667-.467-.99.248-2.629.571-4.876.962-5.3,1.686-1.809,10.333-7.9,16.342-12.571a5.762,5.762,0,0,0,3.543,2.438,20.1,20.1,0,0,0,6.171-.467c.7-.238,2.676-1.286,4.076.467s4.419,2.562,8.257,5.114a16.484,16.484,0,0,1,6.286,8.038c.819,2.1,3.5,6.057,10.476,8.152s6.171,5.466,5.59,7.914-5,1.514-6.638,5.009.819,6.514,6.99,8.847,6.981,5,7.333,10.124S321.207,423.628,318.531,423.971Z" transform="translate(-12.088 -17.284)" fill="#fffaf2" stroke="#f9f3e9" stroke-miterlimit="10" stroke-width="2"/>
    <path id="패스_2062" data-name="패스 2062" d="M360.091,292.02a.645.645,0,0,0-.133.019,13.911,13.911,0,0,0-5.581,2.543c-3.457,2.448-11.219.933-13.666,1.629s-2.562,4.771.114,9.2,1.752,5.933,2.1,8.152q.271,1,.629,1.971c-7.143-2.638-13.685-5.171-14.876-5.924-3.076-1.981-2.99-2.448-3.914-4.781s.7-3.952,0-9.19-5.828-5.943-8.857-6.7a11.174,11.174,0,0,0-2.467-.362,21.923,21.923,0,0,0,.2-2.19c.352-6.99,3.143-6.638,5.238-10.133s3.667-5.238,3.848-8.028-.609-6.466,1-7.162,2.7,0,4.952,2.1,4.514.343,5.219-.876a2.086,2.086,0,0,1,.438-.476c.076-.057.152-.114.229-.181a6.54,6.54,0,0,1,.571-.39c.1-.067.21-.133.324-.2a25.524,25.524,0,0,1,3.181-1.552c.257-.1.514-.2.771-.3h.029c.076-.009.152-.009.238-.019a12.749,12.749,0,0,0,3.124,7.657c5.419,6.457,10.828,13.619,12.228,14.495.686.429,3,5.257,5.066,10.7" transform="translate(-14.935 -12.349)" fill="#fffaf2" stroke="#f9f3e9" stroke-width="2"/>
    <path id="패스_2063" data-name="패스 2063" d="M360.091,292.02a.645.645,0,0,0-.133.019,13.911,13.911,0,0,0-5.581,2.543c-3.457,2.448-11.219.933-13.666,1.629s-2.562,4.771.114,9.2,1.752,5.933,2.1,8.152q.271,1,.629,1.971c-7.143-2.638-13.685-5.171-14.876-5.924-3.076-1.981-2.99-2.448-3.914-4.781s.7-3.952,0-9.19-5.828-5.943-8.857-6.7a11.174,11.174,0,0,0-2.467-.362,21.923,21.923,0,0,0,.2-2.19c.352-6.99,3.143-6.638,5.238-10.133s3.667-5.238,3.848-8.028-.609-6.466,1-7.162,2.7,0,4.952,2.1,4.514.343,5.219-.876a2.086,2.086,0,0,1,.438-.476c.076-.057.152-.114.229-.181a6.54,6.54,0,0,1,.571-.39c.1-.067.21-.133.324-.2a25.524,25.524,0,0,1,3.181-1.552c.257-.1.514-.2.771-.3h.029c.076-.009.152-.009.238-.019a12.749,12.749,0,0,0,3.124,7.657c5.419,6.457,10.828,13.619,12.228,14.495C355.71,281.744,358.024,286.573,360.091,292.02Z" transform="translate(-14.935 -12.349)" fill="#fff" stroke="#f9f3e9" stroke-miterlimit="10" stroke-width="2"/>
    <path id="패스_2064" data-name="패스 2064" d="M429.053,244.567a27.948,27.948,0,0,1-1.048-9.428c.171-4.714-5.067-4.371-6.99-4.19s-3.314,2.79-3.486,5.238.514,6.628-2.628,8.381a6.506,6.506,0,0,1-7.857-1.4,20.729,20.729,0,0,1-3.143-6.809c-.7-2.619-3.5-1.752-8.209-1.752s-7.152-1.743-8.2-2.619-5.59-4.362-6.286-8.2,1.914-6.99,4.362-9.781,5.59-6.809,5.59-9.609-1.752-6.638-5.59-9.076a18.712,18.712,0,0,1-7.162-8.209c-.876-2.276-.352-6.286-3.314-7.857s-6.114-.524-8.381-1.924a6.23,6.23,0,0,1-.657-.457c-.276,4.39-.962,8.762-2.314,10.581-4.019,5.419-10.476,11.7-16.59,13.8s-5.762,8.028-5.943,9.952-3.314,7.333-5.762,8.9a2.85,2.85,0,0,1-.381.21,91.665,91.665,0,0,0,3.876,9.743c2.1,3.143,2.971,7.514,2.79,13.8a83.189,83.189,0,0,1-1.39,8.285c.133.019.276.048.41.067.5.086,1.019.171,1.533.257-.867.276-1.581.486-1.581.486a19.665,19.665,0,0,0,0,2.248v.038a12.749,12.749,0,0,0,3.124,7.657c5.419,6.457,10.828,13.619,12.228,14.495.686.429,3,5.257,5.066,10.7a9.5,9.5,0,0,1,3.324,0c2.676.467,9.666,2.914,14.78,1.276s3.848-5.352,8.152-6.981,9.2-4.076,13.971-2.79,7.685,2.9,11.876,2.1,5.59-5.943,5.59-7.685.933-1.981,2.324-1.981,3.847.114,4.781-1.4c.876-1.438,1.133-12.609,6.828-14.438a2.287,2.287,0,0,1,.362-.114c-1.667-4.962-3.762-10.523-4.057-11.514m-84.836,9.676c-1.1.162,1.2-.429,0,0" transform="translate(-15.965 -8.428)" fill="#fffaf2" stroke="#f9f3e9" stroke-width="2"/>
    <path id="패스_2065" data-name="패스 2065" d="M429.053,244.567a27.948,27.948,0,0,1-1.048-9.428c.171-4.714-5.067-4.371-6.99-4.19s-3.314,2.79-3.486,5.238.514,6.628-2.628,8.381a6.506,6.506,0,0,1-7.857-1.4,20.729,20.729,0,0,1-3.143-6.809c-.7-2.619-3.5-1.752-8.209-1.752s-7.152-1.743-8.2-2.619-5.59-4.362-6.286-8.2,1.914-6.99,4.362-9.781,5.59-6.809,5.59-9.609-1.752-6.638-5.59-9.076a18.712,18.712,0,0,1-7.162-8.209c-.876-2.276-.352-6.286-3.314-7.857s-6.114-.524-8.381-1.924a6.23,6.23,0,0,1-.657-.457c-.276,4.39-.962,8.762-2.314,10.581-4.019,5.419-10.476,11.7-16.59,13.8s-5.762,8.028-5.943,9.952-3.314,7.333-5.762,8.9a2.85,2.85,0,0,1-.381.21,91.665,91.665,0,0,0,3.876,9.743c2.1,3.143,2.971,7.514,2.79,13.8a83.189,83.189,0,0,1-1.39,8.285c.133.019.276.048.41.067.5.086,1.019.171,1.533.257-.867.276-1.581.486-1.581.486a19.665,19.665,0,0,0,0,2.248v.038a12.749,12.749,0,0,0,3.124,7.657c5.419,6.457,10.828,13.619,12.228,14.495.686.429,3,5.257,5.066,10.7a9.5,9.5,0,0,1,3.324,0c2.676.467,9.666,2.914,14.78,1.276s3.848-5.352,8.152-6.981,9.2-4.076,13.971-2.79,7.685,2.9,11.876,2.1,5.59-5.943,5.59-7.685.933-1.981,2.324-1.981,3.847.114,4.781-1.4c.876-1.438,1.133-12.609,6.828-14.438a2.287,2.287,0,0,1,.362-.114C431.443,251.119,429.348,245.558,429.053,244.567Zm-84.836,9.676C343.122,254.4,345.417,253.815,344.217,254.243Z" transform="translate(-15.965 -8.428)" fill="#fff" stroke="#f9f3e9" stroke-miterlimit="10" stroke-width="2"/>
    <path id="패스_2066" data-name="패스 2066" d="M338.321,245.351a83.189,83.189,0,0,1-1.39,8.285c-3.752-.638-7.066-1.171-8.038-1.3-6.114-.876-8.038-1.924-10.828-5.067s-8.381-6.638-11.523-7.428-9.609-1.3-14.323,0-9.781,8.124-13.619,7.247-5.933-2.971-10-5.59c-.267-.171-2.448-1.552-5.1-3.19.752-6.981,9.99-17.533,10.828-18.676.962-1.314,5.628-6.381,6.028-9.952a6.305,6.305,0,0,0,.038-1.019c5.714-.3,12.923-.667,15.676-.514,6.286.352,12.228,7.685,13.095,8.209a62.4,62.4,0,0,1,8.562,5.238c3.1,2.457,10.828,1.686,13.79.286a1.043,1.043,0,0,0,.143-.076,91.665,91.665,0,0,0,3.876,9.743c2.1,3.143,2.971,7.514,2.79,13.8" transform="translate(-12.555 -9.916)" fill="#fffaf2" stroke="#f9f3e9" stroke-width="2"/>
    <path id="패스_2067" data-name="패스 2067" d="M338.321,245.351a83.189,83.189,0,0,1-1.39,8.285c-3.752-.638-7.066-1.171-8.038-1.3-6.114-.876-8.038-1.924-10.828-5.067s-8.381-6.638-11.523-7.428-9.609-1.3-14.323,0-9.781,8.124-13.619,7.247-5.933-2.971-10-5.59c-.267-.171-2.448-1.552-5.1-3.19.752-6.981,9.99-17.533,10.828-18.676.962-1.314,5.628-6.381,6.028-9.952a6.305,6.305,0,0,0,.038-1.019c5.714-.3,12.923-.667,15.676-.514,6.286.352,12.228,7.685,13.095,8.209a62.4,62.4,0,0,1,8.562,5.238c3.1,2.457,10.828,1.686,13.79.286a1.043,1.043,0,0,0,.143-.076,91.665,91.665,0,0,0,3.876,9.743C337.626,234.694,338.5,239.066,338.321,245.351Z" transform="translate(-12.555 -9.916)" fill="#fff" stroke="#f9f3e9" stroke-miterlimit="10" stroke-width="2"/>
    <path id="패스_2068" data-name="패스 2068" d="M337.213,255.957a19.665,19.665,0,0,0,0,2.248c-.143.029-.229.057-.238.057h-.029c-.257.1-.514.19-.771.3a25.524,25.524,0,0,0-3.181,1.552c-.114.067-.219.133-.324.2a6.54,6.54,0,0,0-.571.39c-.086.067-.162.124-.229.181a2.086,2.086,0,0,0-.438.476c-.7,1.219-2.971,2.971-5.219.876s-3.333-2.8-4.952-2.1-.829,4.362-1,7.162-1.752,4.533-3.848,8.028-4.886,3.143-5.238,10.133a21.923,21.923,0,0,1-.2,2.19c-1.609-.048-2.886.286-4.686.362-2.619.1-2.448-1.333-2.448-2.381s.876-3.5,1.048-6.809-1.924-7.866-3.5-9.257-7.162-1.4-10.3-1.4-4.714-.7-5.581-1.743a44,44,0,0,0-6.286-5.771c-2.628-1.914-4.724-1.39-7.866-3.39s-3.667-2.714-4.533-4.809c-.533-1.276-2.781-6.066-5.009-11.085a14.688,14.688,0,0,1,1.581.029,6,6,0,0,1-.029-.838,6.452,6.452,0,0,1,.048-.733c2.657,1.638,4.838,3.019,5.1,3.19,4.067,2.619,6.162,4.724,10,5.59s8.9-5.943,13.619-7.247,11.181-.79,14.323,0,8.733,4.286,11.523,7.428,4.714,4.19,10.828,5.067c.971.124,4.286.657,8.038,1.3.133.019.276.048.41.067-.019.248-.038.5-.048.743" transform="translate(-12.475 -11.427)" fill="#fffaf2" stroke="#f9f3e9" stroke-width="2"/>
    <path id="패스_2069" data-name="패스 2069" d="M337.213,255.957a19.665,19.665,0,0,0,0,2.248c-.143.029-.229.057-.238.057h-.029c-.257.1-.514.19-.771.3a25.524,25.524,0,0,0-3.181,1.552c-.114.067-.219.133-.324.2a6.54,6.54,0,0,0-.571.39c-.086.067-.162.124-.229.181a2.086,2.086,0,0,0-.438.476c-.7,1.219-2.971,2.971-5.219.876s-3.333-2.8-4.952-2.1-.829,4.362-1,7.162-1.752,4.533-3.848,8.028-4.886,3.143-5.238,10.133a21.923,21.923,0,0,1-.2,2.19c-1.609-.048-2.886.286-4.686.362-2.619.1-2.448-1.333-2.448-2.381s.876-3.5,1.048-6.809-1.924-7.866-3.5-9.257-7.162-1.4-10.3-1.4-4.714-.7-5.581-1.743a44,44,0,0,0-6.286-5.771c-2.628-1.914-4.724-1.39-7.866-3.39s-3.667-2.714-4.533-4.809c-.533-1.276-2.781-6.066-5.009-11.085a14.688,14.688,0,0,1,1.581.029,6,6,0,0,1-.029-.838,6.452,6.452,0,0,1,.048-.733c2.657,1.638,4.838,3.019,5.1,3.19,4.067,2.619,6.162,4.724,10,5.59s8.9-5.943,13.619-7.247,11.181-.79,14.323,0,8.733,4.286,11.523,7.428,4.714,4.19,10.828,5.067c.971.124,4.286.657,8.038,1.3.133.019.276.048.41.067C337.241,255.462,337.222,255.709,337.213,255.957Z" transform="translate(-12.475 -11.427)" fill="#fff" stroke="#f9f3e9" stroke-miterlimit="10" stroke-width="2"/>
    <path id="패스_2070" data-name="패스 2070" d="M239.848,263.125c-.343,4.019-7.5,7.162-9.771,8.914s-1.048,4.886,0,7.685-1.4,3.667-1.048,8.485,5.057,5.476,6.286,9.828-2.1,7.352-2.971,8.924.7,5.59,0,7.333c-.686,1.714-3.886-.762-5.981-.857a.627.627,0,0,0-.133-.01c-2.1,0-2.971,2.267-5.59,7.333-2.276,4.4-2.838,6.428-6.628,7.114-.076.01-.143.029-.229.038-.5.076-1.067.143-1.7.181a17,17,0,0,0-11.266,4.533c-2.876,2.448-1.314,5.419-4.628,6.99s-5.238,1.571-8.9-1.981c-1.171-1.133-6.133-5.143-11.342-9.3a2.585,2.585,0,0,0,.1-.238c.01-.029.029-.067.038-.1a28.12,28.12,0,0,0,2.057-7.7c.352-3.267,0-36.094,3.143-40.751s2.8-5.238,2.8-8.152-.7-5.7,3.371-10.943c2.181-2.809,8.047-9.7,13.361-16.085.114-.133.229-.267.333-.4,8.3,2.286,18.085,4.952,20.361,5.362a137.854,137.854,0,0,0,13.819,1.9c.4.019.771.019,1.1.019,1.7,4.781,3.609,9.685,3.419,11.876" transform="translate(-8.383 -11.624)" fill="#fffaf2" stroke="#f9f3e9" stroke-width="2"/>
    <path id="패스_2071" data-name="패스 2071" d="M239.848,263.125c-.343,4.019-7.5,7.162-9.771,8.914s-1.048,4.886,0,7.685-1.4,3.667-1.048,8.485,5.057,5.476,6.286,9.828-2.1,7.352-2.971,8.924.7,5.59,0,7.333c-.686,1.714-3.886-.762-5.981-.857a.627.627,0,0,0-.133-.01c-2.1,0-2.971,2.267-5.59,7.333-2.276,4.4-2.838,6.428-6.628,7.114-.076.01-.143.029-.229.038-.5.076-1.067.143-1.7.181a17,17,0,0,0-11.266,4.533c-2.876,2.448-1.314,5.419-4.628,6.99s-5.238,1.571-8.9-1.981c-1.171-1.133-6.133-5.143-11.342-9.3a2.585,2.585,0,0,0,.1-.238c.01-.029.029-.067.038-.1a28.12,28.12,0,0,0,2.057-7.7c.352-3.267,0-36.094,3.143-40.751s2.8-5.238,2.8-8.152-.7-5.7,3.371-10.943c2.181-2.809,8.047-9.7,13.361-16.085.114-.133.229-.267.333-.4,8.3,2.286,18.085,4.952,20.361,5.362a137.854,137.854,0,0,0,13.819,1.9c.4.019.771.019,1.1.019C238.134,256.03,240.038,260.935,239.848,263.125Z" transform="translate(-8.383 -11.624)" fill="#fff" stroke="#f9f3e9" stroke-miterlimit="10" stroke-width="2"/>
    <path id="패스_2072" data-name="패스 2072" d="M309.406,287.728c-.667,4.809-2.6,4.914-3.99,5.838-1.571,1.048-2.619,2.448-3.838,5.238s-3.152,3.143-6.466,3.667-4.714,1.048-5.762,4.543c-.952,3.181-.743,5.486-2.029,9.571a2.457,2.457,0,0,1-.076.248c-2.248.41-4.448.781-5.057.838-3.667.343-7.333-2.8-9.076-4.371s-4.371-.343-7.162-1.571-2.971-4.362-4.9-5.409-3.314.343-3.838,6.981-4.9,6.99-7.857,7.685c-.781.181-1.5.343-2.19.524a2.177,2.177,0,0,0-.267.067,7.885,7.885,0,0,0-4.514,2.552c-1.724,2.1-5.428,1.743-10.324-.7-1.809-.9-2.733-5.714-3.181-10.114,2.1.1,5.3,2.571,5.981.857.7-1.743-.876-5.762,0-7.333s4.19-4.571,2.971-8.924-5.943-5.009-6.286-9.828,2.1-5.7,1.048-8.485-2.276-5.943,0-7.685,9.428-4.9,9.771-8.914c.19-2.19-1.714-7.1-3.419-11.876a3.793,3.793,0,0,0,1.324-.171c1.581-.7,12.923-7.685,15.2-8.562a15.347,15.347,0,0,1,4.771-.952c2.229,5.019,4.476,9.809,5.009,11.085.867,2.1,1.39,2.809,4.533,4.809s5.238,1.476,7.866,3.39a44.006,44.006,0,0,1,6.286,5.771c.867,1.048,2.438,1.743,5.581,1.743s8.733,0,10.3,1.4,3.667,5.933,3.5,9.257-1.048,5.762-1.048,6.809-.171,2.476,2.448,2.381c1.8-.076,3.076-.41,4.686-.362" transform="translate(-10.906 -11.504)" fill="#fffaf2" stroke="#f9f3e9" stroke-width="2"/>
    <path id="패스_2073" data-name="패스 2073" d="M309.406,287.728c-.667,4.809-2.6,4.914-3.99,5.838-1.571,1.048-2.619,2.448-3.838,5.238s-3.152,3.143-6.466,3.667-4.714,1.048-5.762,4.543c-.952,3.181-.743,5.486-2.029,9.571a2.457,2.457,0,0,1-.076.248c-2.248.41-4.448.781-5.057.838-3.667.343-7.333-2.8-9.076-4.371s-4.371-.343-7.162-1.571-2.971-4.362-4.9-5.409-3.314.343-3.838,6.981-4.9,6.99-7.857,7.685c-.781.181-1.5.343-2.19.524a2.177,2.177,0,0,0-.267.067,7.885,7.885,0,0,0-4.514,2.552c-1.724,2.1-5.428,1.743-10.324-.7-1.809-.9-2.733-5.714-3.181-10.114,2.1.1,5.3,2.571,5.981.857.7-1.743-.876-5.762,0-7.333s4.19-4.571,2.971-8.924-5.943-5.009-6.286-9.828,2.1-5.7,1.048-8.485-2.276-5.943,0-7.685,9.428-4.9,9.771-8.914c.19-2.19-1.714-7.1-3.419-11.876a3.793,3.793,0,0,0,1.324-.171c1.581-.7,12.923-7.685,15.2-8.562a15.347,15.347,0,0,1,4.771-.952c2.229,5.019,4.476,9.809,5.009,11.085.867,2.1,1.39,2.809,4.533,4.809s5.238,1.476,7.866,3.39a44.006,44.006,0,0,1,6.286,5.771c.867,1.048,2.438,1.743,5.581,1.743s8.733,0,10.3,1.4,3.667,5.933,3.5,9.257-1.048,5.762-1.048,6.809-.171,2.476,2.448,2.381C306.521,288.014,307.8,287.681,309.406,287.728Z" transform="translate(-10.906 -11.504)" fill="#fff" stroke="#f9f3e9" stroke-miterlimit="10" stroke-width="2"/>
    <path id="패스_2074" data-name="패스 2074" d="M204.366,188.656s-7.219,8.031-27.128,9.079-22.352.466-22.352.466-9.663-1.747-16.067,4.774-8.964,6.52-9.663,6.52-3.26-2.329-4.191-4.076-5.937-1.4-6.985.35-3.493,5.471-10.827,6.286-11.061-1.629-15.834,3.726-10.476,8.149-10.476,15.135a10.372,10.372,0,0,0,6.054,9.546,9.561,9.561,0,0,1,5.7,8.849c.116,6.636.466,10.476-3.143,10.476s-9.428-1.048-8.615,2.329,6.636,8.381,6.636,8.381,4.773,3.493,2.794,8.033S86.9,284.467,86.2,287.61s-4.112,3.958-5.428,3.027-3.3-4.773-2.251-10.827-1.98-7.8-4.191-9.082-6.169.35-7.567,2.446-4.54,2.794-6.285,2.445-3.377-1.747-7.8,3.842-8.731,4.425-12.57,3.727a131.857,131.857,0,0,0-19.442-2.329c-7.917-.232-12.459.116-12.691,3.842A12.913,12.913,0,0,0,11,294.363c2.329,2.678,11.177,11.992,12.923,14.087s6.4,4.19,9.314,4.19,10.476-.931,11.409,2.794.349,7.219,2.445,10.363,2.445,5.7,5.472,7.8,3.259,5.7,1.629,7.1a15.974,15.974,0,0,0-5.007,6.753c-1.164,3.26-5.587,1.746-5.587,1.746s-4.657-1.863-5.822,2.678.931,13.156-2.678,16.532-14.9,10.13-24.215,13.855-7.219,8.149-7.8,11.758S.393,401.944.5,406.134s.931,7.917.7,9.78.581,6.17,1.862,10.827,10.129,15.6,11.992,20.84,7.333,14.666,8.964,18.857,2.678,11.178,6.17,17.115,9.9,7.1,12.806,7.333,12.571,1.98,16.533-6.635,5.7-11.992,7.45-14.321a25.928,25.928,0,0,0,4.9-13.156c.349-5.821,3.842-12.223,3.842-16.881s0-10.011.581-16.066-.349-22.7.117-25.38,1.747-4.889,5.821-4.307,12.458,2.794,17.231,3.376a37.7,37.7,0,0,1,9.78,2.328c1.165.583,6.52,3.143,9.314,3.376s7.1-2.677,7.917-4.656.7-3.843,3.259-5.822,5.938-4.772,6.055-12.341-1.979-15.136,2.678-15.252,8.731,2.445,11.759.932,2.21-3.609,4.307-5.356,8.849-6.286,11.177-8.381,3.958-1.165,4.424-.116.117,5.7-.931,6.753-4.075,5.587-4.075,10.127,3.143,18.862,2.911,22.819,1.747,8.034,1.863,10.711,3.377,6.4,3.726,6.986,3.259,1.629,3.491,5.587.817,7.453,2.912,9.315,5.587,5.238,8.265,4.19,4.54-13.506,5.472-15.252,3.493-4.19-.117-8.615-3.957-6.17-2.562-7.567a3.914,3.914,0,0,1,5.007-.466c1.4,1.048,5.706,7.566,6.4,9.313s3.844,4.076,7.218,3.727,8.848-5.473,12.691-3.377,6.055,2.8,8.265,1.63,1.978-8.615,4.307-13.738,1.98-23.634,2.68-26.312,2.1-3.376,3.608-3.726,5.587,1.98,6.285,2.794,14.554,11.876,16.883,15.484,6.753,5.7,8.149,5.7,4.307-.349,6.17,2.1,2.91,5.238,5.587,5.938,4.19,1.048,5.238,2.91,5.124,8.266,7.8,8.381,3.26,1.4,5.122,1.048,1.282-1.629,3.959-1.978,4.889-.467,4.54-5.589-1.162-7.8-7.333-10.128-8.614-5.356-6.985-8.848,6.055-2.562,6.637-5.007,1.4-5.821-5.589-7.917-9.664-6.054-10.476-8.149a16.511,16.511,0,0,0-6.286-8.034c-3.842-2.561-6.867-3.376-8.264-5.122s-3.377-.7-4.076-.466a19.83,19.83,0,0,1-6.17.466c-2.679-.233-5.589-4.773-5.471-6.986s-.35-7.1,1.629-7.568,5.355-.582,8.149-1.979,4.425-4.89,6.868-5.355,3.262,2.1,2.679,3.842,1.163,5.238,3.375,6.752,4.773,1.282,6.519,1.514,5.007.465,5.706.814,4.773,1.282,6.986,5.124a10.7,10.7,0,0,0,9.663,5.471c3.608-.117,7.45-4.307,10.246-5.123s6.867,1.98,9.778,2.1,9.664-.115,10.595-8.381-.7-10.944-2.1-15.019,0-5.123-.7-7.8S333.6,310.9,332.2,309.5a22.216,22.216,0,0,1-4.19-8.265c-.348-2.212.582-3.727-2.1-8.15s-2.562-8.5-.116-9.2,10.21.815,13.662-1.629,6.363-3.027,9.04-2.561,9.664,2.91,14.785,1.28,3.843-5.354,8.15-6.985,9.2-4.075,13.971-2.794,7.683,2.91,11.874,2.1,5.589-5.937,5.589-7.684.932-1.98,2.329-1.98,3.842.116,4.773-1.4,1.163-13.855,7.8-14.666,15.253-.349,17.347.931,11.643,3.958,14.786,2.212,3.725-4.889,3.725-8.5-4.074-7.917-4.772-11.875-1.979-9.314-5.237-13.505-3.843-7.684-1.748-10.013S452,196.223,452.7,192.73s-.116-5.939,1.63-9.664,5.706-12.458,5.937-19.21-.116-33.529,2.679-42.145,3.026-27.941,3.725-30.619,2.909-5.238,8.381-4.657S486,90.743,486.814,91.791,490.3,94.119,493.327,94s5.006-2.1,6.521-2.1,5.821,1.164,7.566-2.678,1.863-3.609,2.561-4.424,2.911-4.657.7-10.476-4.423-5.822-6.985-9.547-6.985-3.959-9.082-3.959-8.5.35-8.731-.582.116-2.211-.7-2.91-3.493.35-3.142-1.979.581-13.272,1.163-15.135-.349-3.028-2.328-3.726-1.979-3.377-1.048-4.307,2.91-1.4,3.26-5.356-3.26-7.451-3.26-7.451S466.2,4.122,465.618,3.777s-2.56-3.143-6.4-3.26-5.47.466-6.636,1.979-4.773,3.26-6.169,3.143-3.958-.117-4.54,1.164-1.4,5.124-7.8,4.774-12.107.35-13.971-1.863-8.033-4.308-11.875-4.308-11.063-1.284-10.71.932,2.676,1.747,3.49,5.589,0,16.761-2.1,20.024-6.986,10.012-14.668,11.177-13.738.116-19.443-5.123a32.761,32.761,0,0,0-16.415-7.8c-3.142-.35-12.923-2.678-11.759,3.376s4.307,9.547.813,13.739-10.244,7.333-8.963,10.245,4.772,3.143,3.491,8.731-7.685,8.731-11.293,10.711-4.656,4.541-4.656,7.1-2.1,6.286-1.981,10.013,1.864,5.471.467,7.218-3.958,1.979-5.007,1.979-11.989-.582-16.3,3.143-7.332,8.265-9.2,10.476a8.766,8.766,0,0,1-7.218,3.377c-2.91-.117-6.285-3.028-6.4-3.377a3.967,3.967,0,0,0-1.746-1.629,3.564,3.564,0,0,0-4.19,2.445c-1.165,2.91-7.217,12.806-9.9,14.437s-6.053,2.793-7.1,3.958-4.656,4.19-6.4,1.863-1.28-4.889-7.218-4.424-6.868,1.513-9.664,3.143-4.774,3.143-5.238,8.848-.349,14.9-2.678,19.559S211.118,181.67,204.366,188.656Z" transform="translate(-0.024 -0.024)" fill="none" stroke="#ede3d3" stroke-linecap="round" stroke-linejoin="round" stroke-width="2"/>
  </g>
  <g id="txt" transform="translate(78 159)">
    <path id="패스_86702" data-name="패스 86702" d="M-5.23-7.988h-1.26V.9h1.26Zm-7.441,6.367.654,1A6.473,6.473,0,0,0-7.9-7.061h-4.3v.977h3.027C-9.365-4.111-10.376-2.705-12.671-1.621ZM.991-7.393H-3.853v1h1.816A2.886,2.886,0,0,1-4.194-3.652l.635.986A3.527,3.527,0,0,0-1.377-4.624,3.319,3.319,0,0,0,.679-2.969l.6-.977A2.559,2.559,0,0,1-.776-6.4H.991ZM-2.964-.83C-2.969.259-1.8.9.083.9c1.851,0,2.993-.64,3-1.729s-1.147-1.714-3-1.709C-1.8-2.544-2.969-1.914-2.964-.83Zm1.25,0c-.01-.5.63-.747,1.8-.742s1.768.244,1.768.742S1.235-.068.083-.068-1.724-.322-1.714-.83ZM1.743-2.715h1.25v-2.2h1.2V-5.928h-1.2V-7.988H1.743Zm10.01-4.863H5.581v1h4.932a11.917,11.917,0,0,1-.21,2.363H4.585v.986h3.5v1.895h1.24V-3.232h3.4v-.986H11.567a12.883,12.883,0,0,0,.186-2.588ZM5.532.742H11.89v-1H6.772V-2.139H5.532Z" transform="translate(324.323 -34.84)" fill="#d5cbbc"/>
    <path id="패스_86703" data-name="패스 86703" d="M-5.532-7.588H-11.7v1h4.932A10.536,10.536,0,0,1-7-4.395h-5.7v1.006h8.135V-4.395H-5.742a10.715,10.715,0,0,0,.21-2.48ZM-11.733.8h6.172V-2.451h-6.172Zm1.221-1V-1.475H-6.8V-.2ZM3.433-7.988H2.192V-5.82H.806v1.006H2.192v2.1h1.24Zm-7.549,4.3.645.986A3.544,3.544,0,0,0-1.313-4.7,3.369,3.369,0,0,0,.728-2.939l.615-.977A2.742,2.742,0,0,1-.7-6.455H1.069v-1H-3.755v1h1.787A2.975,2.975,0,0,1-4.116-3.691ZM-2.661-.8C-2.661.278-1.5.908.4.908S3.457.278,3.462-.8,2.295-2.515.4-2.52-2.661-1.88-2.661-.8Zm1.24,0c0-.513.64-.767,1.816-.762s1.821.249,1.826.762S1.577-.039.4-.039-1.421-.293-1.421-.8Zm13.164-6.67H5.513v1H10.5a13.62,13.62,0,0,1-.254,2.783H4.585v1.006H7.974V.908h1.25V-2.686H12.69V-3.691H11.514a15.741,15.741,0,0,0,.229-2.979Z" transform="translate(218.323 3.16)" fill="#d5cbbc"/>
    <path id="패스_86704" data-name="패스 86704" d="M-12.734-6.631h-1.523V-7.744h-1.23v1.113h-1.543v.986h4.3Zm-4.092,3.5a1.974,1.974,0,0,0,1.963,2.119A1.966,1.966,0,0,0-12.91-3.135a1.964,1.964,0,0,0-1.953-2.109A1.971,1.971,0,0,0-16.826-3.135Zm1.094,0c0-.669.352-1.074.869-1.074.5,0,.854.405.859,1.074s-.361,1.064-.859,1.064C-15.381-2.07-15.732-2.456-15.732-3.135ZM-12.4.518h1.162v-3.9h.723V.9h1.182V-7.988h-1.182v3.613h-.723V-7.812H-12.4ZM-.254-3.662H-8.389v1h3.506v1.543h1.26V-2.666H-.254ZM-7.549-5.977c0,1.133,1.289,1.836,3.223,1.836s3.208-.7,3.213-1.836S-2.4-7.812-4.326-7.822C-6.26-7.812-7.549-7.1-7.549-5.977ZM-7.422.742h6.27V-.264h-5.01v-1.65h-1.26ZM-6.2-5.977c0-.566.728-.859,1.875-.859s1.875.293,1.875.859c0,.542-.728.835-1.875.84S-6.206-5.435-6.2-5.977ZM7.949-7.988H6.768v3.428H5.908V-7.842H4.766V.469H5.908V-3.564h.859V.9H7.949ZM.518-1.113h.615a16.708,16.708,0,0,0,3.2-.244L4.248-2.373a15.2,15.2,0,0,1-2.48.215v-3.8H3.828V-6.963H.518ZM16.064-7.471H9.834v1h4.99a13.62,13.62,0,0,1-.254,2.783H8.906v1.006h3.389V.908h1.25V-2.686h3.467V-3.691H15.835a15.741,15.741,0,0,0,.229-2.979Z" transform="translate(280.323 83.16)" fill="#d5cbbc"/>
    <path id="패스_86705" data-name="패스 86705" d="M-4.575-3.789H-8.022v-.762H-5.5v-.977h-4.971v-1.1h4.922V-7.6h-6.162v3.047h2.471v.762H-12.7v.977h8.125Zm-7.2,3.066C-11.772.317-10.6.908-8.657.908s3.086-.591,3.1-1.631c-.01-1.055-1.167-1.641-3.1-1.641S-11.772-1.777-11.772-.723Zm1.27,0c0-.459.615-.693,1.846-.693,1.206,0,1.841.234,1.846.693s-.64.684-1.846.684C-9.888-.039-10.508-.259-10.5-.723ZM-.435-7.129H-3.813v1.006h2.178V-4.7H-3.8v3.623h.615A18.3,18.3,0,0,0,.034-1.3l-.088-1a17.349,17.349,0,0,1-2.559.186V-3.7H-.435ZM.444.469H1.587V-3.623h.859V.9H3.628V-7.988H2.446v3.359H1.587V-7.842H.444Zm11.3-7.939H5.513v1H10.5a13.62,13.62,0,0,1-.254,2.783H4.585v1.006H7.974V.908h1.25V-2.686H12.69V-3.691H11.514a15.741,15.741,0,0,0,.229-2.979Z" transform="translate(214.323 64.16)" fill="#d5cbbc"/>
    <path id="패스_86706" data-name="패스 86706" d="M-5.21-7.979H-6.45v1.24H-8.486a2.389,2.389,0,0,0-1.733-.732,2.274,2.274,0,0,0-2.363,2.314A2.267,2.267,0,0,0-10.22-2.861a2.373,2.373,0,0,0,1.738-.732H-6.45v2.109h1.24ZM-11.4-5.156a1.115,1.115,0,0,1,1.182-1.2,1.125,1.125,0,0,1,1.162,1.2A1.123,1.123,0,0,1-10.22-3.965,1.112,1.112,0,0,1-11.4-5.156Zm.293,5.9H-5v-1H-9.858V-2.139h-1.25Zm3.159-6.484h1.5V-4.59H-7.944a2.4,2.4,0,0,0,.068-.566A2.294,2.294,0,0,0-7.949-5.742ZM3.628-7.988H2.446V.9H3.628ZM-4.243-1.7l.752.918A4.057,4.057,0,0,0-1.836-3.193,3.782,3.782,0,0,0-.22-.977l.732-.918A4.046,4.046,0,0,1-1.245-5.605v-.479H.1v-1h-4v1h1.455v.479A4.433,4.433,0,0,1-4.243-1.7ZM-.532-3.936H.64V.488H1.812v-8.33H.64v2.9H-.532ZM11.743-7.471H5.513v1H10.5a13.62,13.62,0,0,1-.254,2.783H4.585v1.006H7.974V.908h1.25V-2.686H12.69V-3.691H11.514a15.741,15.741,0,0,0,.229-2.979Z" transform="translate(211.323 89.16)" fill="#d5cbbc"/>
    <path id="패스_86707" data-name="패스 86707" d="M-7.983-7.295v-.43H-9.292v.43c0,1.05-1.074,2.207-3.1,2.461l.5,1.006a4.44,4.44,0,0,0,3.252-1.9,4.42,4.42,0,0,0,3.271,1.9l.488-1.006C-6.914-5.088-7.988-6.245-7.983-7.295ZM-12.7-2.139h3.418V.9h1.23V-2.139h3.457V-3.154H-12.7ZM-1.577-7.51A2.2,2.2,0,0,0-3.94-5.332,2.2,2.2,0,0,0-1.577-3.164,2.4,2.4,0,0,0,.166-3.848H2.192v1.064h1.24V-7.988H2.192v1.172H.176A2.4,2.4,0,0,0-1.577-7.51ZM-2.759-5.332A1.068,1.068,0,0,1-1.577-6.445,1.069,1.069,0,0,1-.415-5.332,1.082,1.082,0,0,1-1.577-4.219,1.08,1.08,0,0,1-2.759-5.332Zm.1,4.482C-2.661.254-1.484.9.4.9S3.457.254,3.462-.85,2.275-2.6.4-2.6-2.661-1.953-2.661-.85Zm1.221,0c0-.532.659-.8,1.836-.8,1.2,0,1.841.269,1.846.8S1.6-.068.4-.068C-.781-.068-1.44-.332-1.44-.85ZM.708-5.83H2.192v.986H.713a2.267,2.267,0,0,0,.054-.488A2.077,2.077,0,0,0,.708-5.83ZM11.743-7.471H5.513v1H10.5a13.62,13.62,0,0,1-.254,2.783H4.585v1.006H7.974V.908h1.25V-2.686H12.69V-3.691H11.514a15.741,15.741,0,0,0,.229-2.979Z" transform="translate(242.323 116.16)" fill="#d5cbbc"/>
    <path id="패스_86708" data-name="패스 86708" d="M-8.9-2.861h-8.135v.977H-13.6V.9h1.23V-1.885H-8.9Zm-7.178-.859h6.211V-7.646h-1.25v1.025h-3.73V-7.646h-1.23Zm1.23-1v-.928h3.73v.928ZM-5.1-6.465v-.977h-1.25v.967A2.923,2.923,0,0,1-8.525-3.6l.693.986A3.517,3.517,0,0,0-5.7-4.556,3.369,3.369,0,0,0-3.672-2.783l.654-.977A2.774,2.774,0,0,1-5.1-6.465ZM-7.1.742H-1v-1H-5.83V-2.119H-7.1Zm4.521-2.217h1.25V-4.365h1.2V-5.42h-1.2V-7.988h-1.25ZM3.73-6.23v-.127H5.518v-1H.635v1H2.461v.127A2.885,2.885,0,0,1,.3-3.477L.947-2.5A3.564,3.564,0,0,0,3.12-4.424,3.446,3.446,0,0,0,5.215-2.666l.635-.977A2.714,2.714,0,0,1,3.73-6.23ZM1.748.742H7.939v-1H3.008V-2.139H1.748ZM6.455-1.553h1.25V-7.979H6.455Zm9.609-5.918H9.834v1h4.99a13.62,13.62,0,0,1-.254,2.783H8.906v1.006h3.389V.908h1.25V-2.686h3.467V-3.691H15.835a15.741,15.741,0,0,0,.229-2.979Z" transform="translate(180.323 116.16)" fill="#d5cbbc"/>
    <path id="패스_86709" data-name="패스 86709" d="M-1.328-7.979h-1.25v5.01h1.25V-5.088h1.2V-6.1h-1.2ZM-8.018-3.447h.762a20.733,20.733,0,0,0,4.1-.371L-3.3-4.834a20.493,20.493,0,0,1-3.467.366V-7.559h-1.25ZM-7.148.791h5.82V-2.568h-5.82Zm1.221-.977V-1.6h3.379V-.186ZM7.422-7.471H1.191v1h4.99a13.62,13.62,0,0,1-.254,2.783H.264v1.006H3.652V.908H4.9V-2.686H8.369V-3.691H7.192A15.741,15.741,0,0,0,7.422-6.67Z" transform="translate(228.323 161.16)" fill="#d5cbbc"/>
    <path id="패스_86710" data-name="패스 86710" d="M-.254-3.789H-3.7v-.762h2.52v-.977H-6.152v-1.1H-1.23V-7.6H-7.393v3.047h2.471v.762H-8.379v.977H-.254Zm-7.2,3.066C-7.451.317-6.279.908-4.336.908S-1.25.317-1.24-.723c-.01-1.055-1.167-1.641-3.1-1.641S-7.451-1.777-7.451-.723Zm1.27,0c0-.459.615-.693,1.846-.693,1.206,0,1.841.234,1.846.693s-.64.684-1.846.684C-5.566-.039-6.187-.259-6.182-.723Zm13.6-6.748H1.191v1h4.99a13.62,13.62,0,0,1-.254,2.783H.264v1.006H3.652V.908H4.9V-2.686H8.369V-3.691H7.192A15.741,15.741,0,0,0,7.422-6.67Z" transform="translate(176.323 161.16)" fill="#d5cbbc"/>
    <path id="패스_86711" data-name="패스 86711" d="M-5.02-5.977V-7.3h-1.26v1.328A4.327,4.327,0,0,1-8.506-1.9l.781,1.016a4.258,4.258,0,0,0,2.08-2.622A4.061,4.061,0,0,0-3.623-1.045l.762-1A4.087,4.087,0,0,1-5.02-5.977Zm1.162,1.787h1.748V.918h1.23V-7.988h-1.23V-5.2H-3.857ZM7.422-7.471H1.191v1h4.99a13.62,13.62,0,0,1-.254,2.783H.264v1.006H3.652V.908H4.9V-2.686H8.369V-3.691H7.192A15.741,15.741,0,0,0,7.422-6.67Z" transform="translate(149.323 173.16)" fill="#d5cbbc"/>
    <path id="패스_86712" data-name="패스 86712" d="M-.273-3.955H-8.379v1.006h3.428v.654c-1.577.112-2.5.669-2.5,1.592C-7.451.327-6.284.9-4.336.9-2.417.9-1.25.327-1.24-.7c-.01-.918-.928-1.475-2.471-1.587v-.659H-.273ZM-8.018-5.264l.41.977A3.946,3.946,0,0,0-4.336-5.942,3.982,3.982,0,0,0-1.055-4.287l.439-.977C-2.3-5.41-3.208-6.011-3.423-6.631h2.417v-.977H-7.637v.977h2.4C-5.464-6.016-6.372-5.41-8.018-5.264ZM-6.182-.7c0-.449.615-.664,1.846-.674,1.206.01,1.841.225,1.846.674,0,.43-.64.664-1.846.664C-5.566-.039-6.187-.273-6.182-.7Zm13.6-6.768H1.191v1h4.99a13.62,13.62,0,0,1-.254,2.783H.264v1.006H3.652V.908H4.9V-2.686H8.369V-3.691H7.192A15.741,15.741,0,0,0,7.422-6.67Z" transform="translate(167.323 189.16)" fill="#d5cbbc"/>
    <path id="패스_86713" data-name="패스 86713" d="M-10.22-7.51a2.2,2.2,0,0,0-2.363,2.178A2.2,2.2,0,0,0-10.22-3.164a2.4,2.4,0,0,0,1.743-.684H-6.45v1.064h1.24V-7.988H-6.45v1.172H-8.467A2.4,2.4,0,0,0-10.22-7.51ZM-11.4-5.332A1.068,1.068,0,0,1-10.22-6.445,1.069,1.069,0,0,1-9.058-5.332,1.082,1.082,0,0,1-10.22-4.219,1.08,1.08,0,0,1-11.4-5.332Zm.1,4.482C-11.3.254-10.127.9-8.247.9S-5.186.254-5.181-.85-6.367-2.6-8.247-2.6-11.3-1.953-11.3-.85Zm1.221,0c0-.532.659-.8,1.836-.8,1.2,0,1.841.269,1.846.8s-.645.781-1.846.781C-9.424-.068-10.083-.332-10.083-.85Zm2.148-4.98H-6.45v.986H-7.93a2.267,2.267,0,0,0,.054-.488A2.077,2.077,0,0,0-7.935-5.83ZM3.188-4.014H-1.851V-6.367H3.12v-1H-3.1v4.336H-.63v1.895H-4.058V-.117H4.077V-1.133H.61V-3.027H3.188Zm8.555-3.457H5.513v1H10.5a13.62,13.62,0,0,1-.254,2.783H4.585v1.006H7.974V.908h1.25V-2.686H12.69V-3.691H11.514a15.741,15.741,0,0,0,.229-2.979Z" transform="translate(196.323 215.16)" fill="#d5cbbc"/>
    <path id="패스_86714" data-name="패스 86714" d="M-9.429-5.977V-7.3h-1.25v1.328A4.308,4.308,0,0,1-12.9-1.934l.771,1.006a4.309,4.309,0,0,0,2.08-2.588A4.055,4.055,0,0,0-8.081-1.094l.752-1A4.169,4.169,0,0,1-9.429-5.977ZM-6.938.9h1.25v-4.4H-4.38V-4.561H-5.688V-7.988h-1.25ZM2.954-7.988H1.724V.9h1.23V-3.486H4.263V-4.512H2.954ZM-4.106-5.664H1.118v-1H-.845V-7.852h-1.25V-6.66H-4.106Zm.361,2.617A2.125,2.125,0,0,0-1.47-.928,2.13,2.13,0,0,0,.8-3.047,2.125,2.125,0,0,0-1.47-5.166,2.119,2.119,0,0,0-3.745-3.047Zm1.191,0A1.046,1.046,0,0,1-1.47-4.16,1.044,1.044,0,0,1-.4-3.047,1.018,1.018,0,0,1-1.47-1.953,1.02,1.02,0,0,1-2.554-3.047Zm14.3-4.424H5.513v1H10.5a13.62,13.62,0,0,1-.254,2.783H4.585v1.006H7.974V.908h1.25V-2.686H12.69V-3.691H11.514a15.741,15.741,0,0,0,.229-2.979Z" transform="translate(117.323 206.16)" fill="#d5cbbc"/>
    <path id="패스_86715" data-name="패스 86715" d="M-9.429-5.977V-7.3h-1.25v1.328A4.308,4.308,0,0,1-12.9-1.934l.771,1.006a4.309,4.309,0,0,0,2.08-2.588A4.055,4.055,0,0,0-8.081-1.094l.752-1A4.169,4.169,0,0,1-9.429-5.977ZM-6.938.9h1.25v-4.4H-4.38V-4.561H-5.688V-7.988h-1.25Zm6.123-7.49V-7.52h-1.25v.811a2.957,2.957,0,0,1-2.129,2.9l.674.977A3.406,3.406,0,0,0-1.431-4.77,3.29,3.29,0,0,0,.552-3.076l.664-.967A2.621,2.621,0,0,1-.815-6.592ZM-2.964-.82C-2.969.269-1.792.9.083.9c1.841,0,2.993-.63,3-1.719s-1.157-1.719-3-1.719C-1.792-2.539-2.969-1.9-2.964-.82Zm1.25,0c-.01-.483.63-.742,1.8-.742S1.851-1.3,1.851-.82c0,.5-.615.742-1.768.742S-1.724-.317-1.714-.82ZM1.743-2.715h1.25V-4.873h1.2V-5.908h-1.2v-2.08H1.743Zm10-4.756H5.513v1H10.5a13.62,13.62,0,0,1-.254,2.783H4.585v1.006H7.974V.908h1.25V-2.686H12.69V-3.691H11.514a15.741,15.741,0,0,0,.229-2.979Z" transform="translate(118.323 122.16)" fill="#d5cbbc"/>
    <path id="패스_86716" data-name="패스 86716" d="M-.273-3.75H-8.379v.977h3.428V-2H-7.48v1H-2.5V.9h1.24V-2H-3.721v-.771H-.273Zm-7.07-.586h6.035V-7.773h-1.24v.811H-6.113v-.811h-1.23Zm1.23-.977v-.732h3.564v.732ZM7.422-7.471H1.191v1h4.99a13.62,13.62,0,0,1-.254,2.783H.264v1.006H3.652V.908H4.9V-2.686H8.369V-3.691H7.192A15.741,15.741,0,0,0,7.422-6.67Z" transform="translate(153.323 44.16)" fill="#d5cbbc"/>
    <path id="패스_86717" data-name="패스 86717" d="M-5.649-7.988H-6.9v5.156h1.25V-4.883h1.2V-5.9h-1.2Zm-7.109,4.346.5,1.006c2.646-.737,4.136-2.4,4.131-4.766h-4.209v1h2.852C-9.683-5.176-10.8-4.16-12.759-3.643Zm1.2,2.734C-11.567.215-10.356.908-8.55.908s2.993-.693,3-1.816-1.187-1.816-3-1.816S-11.567-2.021-11.558-.908Zm1.23,0c0-.547.659-.85,1.777-.85s1.768.3,1.768.85-.664.845-1.768.84S-10.332-.371-10.327-.908ZM-.7-5.977V-7.3h-1.26v1.328A4.327,4.327,0,0,1-4.185-1.9L-3.4-.889a4.258,4.258,0,0,0,2.08-2.622A4.061,4.061,0,0,0,.7-1.045l.762-1A4.087,4.087,0,0,1-.7-5.977ZM.464-4.189H2.212V.918h1.23V-7.988H2.212V-5.2H.464ZM11.743-7.471H5.513v1H10.5a13.62,13.62,0,0,1-.254,2.783H4.585v1.006H7.974V.908h1.25V-2.686H12.69V-3.691H11.514a15.741,15.741,0,0,0,.229-2.979Z" transform="translate(34.323 155.16)" fill="#d5cbbc"/>
  </g>
  <g id="그룹_695" data-name="그룹 695" transform="translate(-633.678 -4761.181)">
    <g id="그룹_564" data-name="그룹 564" transform="translate(83 832.5)">
      <g id="그룹_565" data-name="그룹 565" transform="translate(4.411 2.965)">
        <rect id="사각형_69" data-name="사각형 69" width="43.178" height="20.521" rx="10.26" transform="translate(774 4159)" fill="#37197d"/>
        <path id="다각형_24" data-name="다각형 24" d="M4.233,0,8.466,6.567H0Z" transform="translate(799.767 4184.035) rotate(180)" fill="#37197d"/>
      </g>
      <path id="패스_86697" data-name="패스 86697" d="M-3.493,0H3.589V-1.7H-.636V-1.75l1.5-1.463c2.037-1.846,2.584-2.769,2.584-3.9,0-1.716-1.408-2.926-3.527-2.926C-2.16-10.035-3.6-8.8-3.589-6.863h1.955A1.418,1.418,0,0,1-.1-8.395,1.418,1.418,0,0,1,1.47-6.973c0,.786-.5,1.333-1.422,2.215L-3.507-1.49Z" transform="translate(800 4177)" fill="#f9f3e9"/>
    </g>
  </g>
  <g id="그룹_166324" data-name="그룹 166324" transform="translate(-686.678 -4670.181)">
    <g id="그룹_564-2" data-name="그룹 564" transform="translate(83 832.5)">
      <g id="그룹_565-2" data-name="그룹 565" transform="translate(4.411 2.965)">
        <rect id="사각형_69-2" data-name="사각형 69" width="43.178" height="20.521" rx="10.26" transform="translate(774 4159)" fill="#37197d"/>
        <path id="다각형_24-2" data-name="다각형 24" d="M4.233,0,8.466,6.567H0Z" transform="translate(799.767 4184.035) rotate(180)" fill="#37197d"/>
      </g>
      <path id="패스_86701" data-name="패스 86701" d="M-3.493,0H3.589V-1.7H-.636V-1.75l1.5-1.463c2.037-1.846,2.584-2.769,2.584-3.9,0-1.716-1.408-2.926-3.527-2.926C-2.16-10.035-3.6-8.8-3.589-6.863h1.955A1.418,1.418,0,0,1-.1-8.395,1.418,1.418,0,0,1,1.47-6.973c0,.786-.5,1.333-1.422,2.215L-3.507-1.49Z" transform="translate(800 4177)" fill="#f9f3e9"/>
    </g>
  </g>
  <g id="그룹_775" data-name="그룹 775" transform="translate(-594.678 -4786.587)">
    <g id="그룹_564-3" data-name="그룹 564" transform="translate(83 832.5)">
      <g id="그룹_565-3" data-name="그룹 565" transform="translate(5.375 3.102)">
        <rect id="사각형_69-3" data-name="사각형 69" width="40.389" height="20.409" rx="10.204" transform="translate(774 4159)" fill="#37197d"/>
        <path id="다각형_24-3" data-name="다각형 24" d="M3.96,0l3.96,6.531H0Z" transform="translate(798.102 4183.898) rotate(180)" fill="#37197d"/>
      </g>
      <path id="패스_86696" data-name="패스 86696" d="M1.764-9.9H-.178L-2.625-8.34v1.818l2.27-1.422H-.3V0H1.764Z" transform="translate(800 4177)" fill="#f9f3e9"/>
    </g>
  </g>
  <g id="그룹_166323" data-name="그룹 166323" transform="translate(-599.678 -4812.587)">
    <g id="그룹_564-4" data-name="그룹 564" transform="translate(83 832.5)">
      <g id="그룹_565-4" data-name="그룹 565" transform="translate(5.375 3.102)">
        <rect id="사각형_69-4" data-name="사각형 69" width="40.389" height="20.409" rx="10.204" transform="translate(774 4159)" fill="#37197d"/>
        <path id="다각형_24-4" data-name="다각형 24" d="M3.96,0l3.96,6.531H0Z" transform="translate(798.102 4183.898) rotate(180)" fill="#37197d"/>
      </g>
      <path id="패스_86694" data-name="패스 86694" d="M1.764-9.9H-.178L-2.625-8.34v1.818l2.27-1.422H-.3V0H1.764Z" transform="translate(800 4177)" fill="#f9f3e9"/>
    </g>
  </g>
  <g id="그룹_166322" data-name="그룹 166322" transform="translate(-576.678 -4715.587)">
    <g id="그룹_564-5" data-name="그룹 564" transform="translate(83 832.5)">
      <g id="그룹_565-5" data-name="그룹 565" transform="translate(5.375 3.102)">
        <rect id="사각형_69-5" data-name="사각형 69" width="40.389" height="20.409" rx="10.204" transform="translate(774 4159)" fill="#37197d"/>
        <path id="다각형_24-5" data-name="다각형 24" d="M3.96,0l3.96,6.531H0Z" transform="translate(798.102 4183.898) rotate(180)" fill="#37197d"/>
      </g>
      <path id="패스_86700" data-name="패스 86700" d="M1.764-9.9H-.178L-2.625-8.34v1.818l2.27-1.422H-.3V0H1.764Z" transform="translate(800 4177)" fill="#f9f3e9"/>
    </g>
  </g>
  <g id="그룹_777" data-name="그룹 777" transform="translate(-651.678 -4832.587)">
    <g id="그룹_564-6" data-name="그룹 564" transform="translate(83 832.5)">
      <g id="그룹_565-6" data-name="그룹 565" transform="translate(5.375 3.102)">
        <rect id="사각형_69-6" data-name="사각형 69" width="40.389" height="20.409" rx="10.204" transform="translate(774 4159)" fill="#37197d"/>
        <path id="다각형_24-6" data-name="다각형 24" d="M3.96,0l3.96,6.531H0Z" transform="translate(798.102 4183.898) rotate(180)" fill="#37197d"/>
      </g>
      <path id="패스_86693" data-name="패스 86693" d="M1.764-9.9H-.178L-2.625-8.34v1.818l2.27-1.422H-.3V0H1.764Z" transform="translate(800 4177)" fill="#f9f3e9"/>
    </g>
  </g>
  <g id="그룹_166321" data-name="그룹 166321" transform="translate(-479.678 -4912.587)">
    <g id="그룹_564-7" data-name="그룹 564" transform="translate(83 832.5)">
      <g id="그룹_565-7" data-name="그룹 565" transform="translate(5.375 3.102)">
        <rect id="사각형_69-7" data-name="사각형 69" width="40.389" height="20.409" rx="10.204" transform="translate(774 4159)" fill="#37197d"/>
        <path id="다각형_24-7" data-name="다각형 24" d="M3.96,0l3.96,6.531H0Z" transform="translate(798.102 4183.898) rotate(180)" fill="#37197d"/>
      </g>
      <path id="패스_86691" data-name="패스 86691" d="M1.764-9.9H-.178L-2.625-8.34v1.818l2.27-1.422H-.3V0H1.764Z" transform="translate(800 4177)" fill="#f9f3e9"/>
    </g>
  </g>
  <g id="그룹_776" data-name="그룹 776" transform="translate(-525.678 -4794.587)">
    <g id="그룹_564-8" data-name="그룹 564" transform="translate(83 832.5)">
      <g id="그룹_565-8" data-name="그룹 565" transform="translate(4.117 2.965)">
        <rect id="사각형_69-8" data-name="사각형 69" width="43.738" height="20.633" rx="10.316" transform="translate(774 4159)" fill="#37197d"/>
        <path id="다각형_24-8" data-name="다각형 24" d="M4.288,0,8.576,6.6H0Z" transform="translate(800.101 4184.172) rotate(180)" fill="#37197d"/>
      </g>
      <path id="패스_86695" data-name="패스 86695" d="M.109.137A3.436,3.436,0,0,0,3.855-3.309a3.046,3.046,0,0,0-3.1-3.2A2.776,2.776,0,0,0-1.777-5.113h-.1c.014-1.948.718-3.158,2.064-3.158A1.46,1.46,0,0,1,1.723-7.15H3.746A3.361,3.361,0,0,0,.191-10.035c-2.475,0-4.067,1.976-4.074,5.318C-3.89-1.094-1.935.13.109.137ZM-1.668-3.254A1.783,1.783,0,0,1,.123-5.018,1.715,1.715,0,0,1,1.859-3.254,1.718,1.718,0,0,1,.1-1.49,1.746,1.746,0,0,1-1.668-3.254Z" transform="translate(800 4177)" fill="#f9f3e9"/>
    </g>
  </g>
  <g id="그룹_166325" data-name="그룹 166325" transform="translate(-563.678 -4758.587)">
    <g id="그룹_564-9" data-name="그룹 564" transform="translate(83 832.5)">
      <g id="그룹_565-9" data-name="그룹 565" transform="translate(4.411 2.965)">
        <rect id="사각형_69-9" data-name="사각형 69" width="43.178" height="20.521" rx="10.26" transform="translate(774 4159)" fill="#37197d"/>
        <path id="다각형_24-9" data-name="다각형 24" d="M4.233,0,8.466,6.567H0Z" transform="translate(799.767 4184.035) rotate(180)" fill="#37197d"/>
      </g>
      <path id="패스_86699" data-name="패스 86699" d="M-3.493,0H3.589V-1.7H-.636V-1.75l1.5-1.463c2.037-1.846,2.584-2.769,2.584-3.9,0-1.716-1.408-2.926-3.527-2.926C-2.16-10.035-3.6-8.8-3.589-6.863h1.955A1.418,1.418,0,0,1-.1-8.395,1.418,1.418,0,0,1,1.47-6.973c0,.786-.5,1.333-1.422,2.215L-3.507-1.49Z" transform="translate(800 4177)" fill="#f9f3e9"/>
    </g>
  </g>
  <g id="그룹_166320" data-name="그룹 166320" transform="translate(-585.678 -4876.341)">
    <g id="그룹_564-10" data-name="그룹 564" transform="translate(83 832.5)">
      <g id="그룹_565-10" data-name="그룹 565" transform="translate(4.199 2.965)">
        <rect id="사각형_69-10" data-name="사각형 69" width="43.602" height="20.633" rx="10.316" transform="translate(774 4159)" fill="#37197d"/>
        <path id="다각형_24-10" data-name="다각형 24" d="M4.275,0,8.549,6.6H0Z" transform="translate(800.02 4184.172) rotate(180)" fill="#37197d"/>
      </g>
      <path id="패스_86692" data-name="패스 86692" d="M-.027.137C2.208.137,3.814-1.08,3.8-2.775a2.247,2.247,0,0,0-2.242-2.3v-.082A2.1,2.1,0,0,0,3.432-7.246C3.438-8.812,2.064-10.035,0-10.035c-2.03,0-3.562,1.183-3.6,2.885h1.969A1.455,1.455,0,0,1,0-8.395,1.285,1.285,0,0,1,1.449-7.123c.007.779-.677,1.312-1.654,1.312h-.916v1.518h.916c1.162.007,1.88.574,1.873,1.381S.971-1.565-.014-1.559c-.957-.007-1.675-.492-1.709-1.23H-3.8C-3.76-1.06-2.2.137-.027.137Z" transform="translate(800 4177)" fill="#f9f3e9"/>
    </g>
  </g>
  <g id="그룹_774" data-name="그룹 774" transform="translate(-685.678 -4755.586)">
    <g id="그룹_564-11" data-name="그룹 564" transform="translate(83 832.5)">
      <g id="그룹_565-11" data-name="그룹 565" transform="translate(4.015 3.102)">
        <rect id="사각형_69-11" data-name="사각형 69" width="44.025" height="20.409" rx="10.204" transform="translate(774 4159)" fill="#37197d"/>
        <path id="다각형_24-11" data-name="다각형 24" d="M4.316,0,8.632,6.531H0Z" transform="translate(800.272 4183.898) rotate(180)" fill="#37197d"/>
      </g>
      <path id="패스_86698" data-name="패스 86698" d="M-3.985-1.75H.827V0H2.782V-1.75H4.04V-3.4H2.782V-9.9H.2L-3.985-3.377ZM-1.907-3.4v-.082L.759-7.643h.1V-3.4Z" transform="translate(800 4177)" fill="#f9f3e9"/>
    </g>
  </g>
</svg>
