<svg id="map-jeju" xmlns="http://www.w3.org/2000/svg" xmlns:xlink="http://www.w3.org/1999/xlink" width="515.137" height="283.98" viewBox="0 0 515.137 283.98">
  <defs>
    <clipPath id="clip-path">
      <rect id="사각형_252" data-name="사각형 252" width="515.138" height="283.98" fill="none"/>
    </clipPath>
  </defs>
  <g id="그룹_696" data-name="그룹 696" clip-path="url(#clip-path)">
    <path id="패스_2075" data-name="패스 2075" d="M486.136,39.843v8.648l-2.362,6.044L482.193,59.8l-1.562,1.562-.093,1.395c-2.911.3-5.458.558-6.816.67-4.594.381-4.2,1.153-9.178,3.822s-6.881,4.2-9.178,7.644-8.8,2.687-11.847,2.3-4.594,2.288-8.415,3.822-3.059,3.059-5.356,6.881-3.822,2.678-9.169,4.594S414.46,97.459,407.96,98.6s-8.034,4.966-9.559,6.109a21.81,21.81,0,0,1-9.169,4.594c-4.975,1.153-4.212-1.906-9.178-3.441s-4.594,0-8.8,3.441-5.728,1.906-15.287,3.441-9.94,9.94-13,15.678-7.262.381-10.712-.763-5.728,0-8.025,1.525-.381,5.356-9.94,5.737-13.762,6.881-19.118,7.644-7.644.391-11.084,4.975-5.356,3.059-9.178,3.822-6.5.391-13.381-.763-11.084,6.119-11.084,6.119a68.859,68.859,0,0,1-6.5,3.441c-2.678,1.144-3.822,0-6.881-1.144s-3.45,1.525-8.415.762-3.441-1.906-7.644.763-4.594,1.153-6.119-.381-1.525-1.144-4.584.381-4.2,1.144-5.737-.763-3.813-2.288-6.5.381-4.584,0-4.584,0a38.653,38.653,0,0,0-6.881,0c-2.3.381-2.678,2.3-3.831,5.356s-.381,1.916-.762,4.584c-.251,1.785.009,2.036-.139,3.5l-2.148.707-4.975-.381a35.445,35.445,0,0,1-6.881.381c-5.356,0-6.881-.391-14.906-2.678s-8.8,0-14.915.763-5.356,1.916-13.381,1.153-4.584.381-7.644,2.669-4.975,4.212-9.178,6.5-6.881,1.544-9.169,3.831-4.212,2.3-7.653,3.822-4.2,2.669-5.347,4.584-.763,3.831-3.822,5.737-1.916,1.906-3.831,4.584-17.491,6.472-17.491,6.472c-8.388,1.395-3.5,6.277-3.5,9.773s-2.79,4.194-4.184,2.1a17.591,17.591,0,0,0-8.388-6.993,37.5,37.5,0,0,1-9.076-4.882c-4.194-2.8-4.9-2.8-10.489-5.589s-7.681,1.395-12.572,4.184c-1.572.893-3.654,3.217-5.756,5.951l-.632-.995L.679,212.663l3.152-6.016L9.6,197.2l-2.883-1.3-.26-15.483-2.092-3.143.781-4.956L8.3,168.344l-1.581-6.3L9.6,159.436l4.984,5.5s1.051-7.355,2.1-7.876,13.111-9.708,13.111-9.708l4.463.27L35.289,145l2.911-1.041v-5.245l7.076-6.286,4.715-.549,9.448-8.369,7.337-4.463.521-6.816-.781-12.86,8.388-1.3,4.2-4.212,6.3-.251,14.692-13.372,2.873-.27-.26-1.841-2.892-3.394,5.765-7.086,5.245,6.035,3.152.251,5.5-1.041,10.5-5.775,10.238-.251s.26-4.724,4.715-5.793c0,0,6.286-4.175,8.908,1.069l6.044.26,4.184-4.194,4.984.242,6.286-7.337,9.2,2.632,1.041-2.353,5.245.511s2.632-3.673,3.924-4.2c1.32-.52,5.263,0,5.263,0a15.247,15.247,0,0,1,8.918-7.067l5.5-1.84,3.394-5.506,4.194-.26,2.1,4.455,18.1-.521,6.825-2.893s6.277-5.5,23.852-3.393l4.2-.781,6.3-6.836,3.4,2.623,5.765-1.311,7.346.27,3.413-3.692,2.622-2.335s3.143-2.38,4.463-3.161a43.911,43.911,0,0,1,6.286-2.083l4.715,2.083,12.6.278,2.883-2.361,12.312-.54L363.9,6.015l12.851-.79,2.892,2.11,8.908-2.353V.5h4.194l5.5,3.944,9.187-1.572,3.422,3.394,6.816.53L420.3,4.433l4.463-1.561s1.832,2.092,2.622,2.092a.46.46,0,0,1,.177.036,1.2,1.2,0,0,1,.223.1.555.555,0,0,1,.13.073c.093.047.2.113.3.177s.2.14.316.224c.223.157.465.344.7.529l.307.252c.139.112.279.222.409.334s.232.2.344.288c.056.047.112.093.158.14.167.139.316.279.446.39.177.15.316.288.428.382.037.037.074.065.1.093a.908.908,0,0,0,.112.1l.028.028.009.01,1.581,7.067,4.2,4.715,13.111,11.809,2.622-.26,3.673-2.891h8.118l6.044,3.151,9.429-1.041Z" transform="translate(-0.048 -0.035)" fill="#fff" stroke="#f9f3e9" stroke-width="2"/>
    <path id="패스_2077" data-name="패스 2077" d="M497.059,93.05l-2.883,5.5.79,5.254,3.4,2.371-.521,3.143-1.581,7.346-4.984-4.724,2.362-1.841-.79-3.682-3.394-.521-2.12,3.134-.511,7.1L485,120.063l-.251,6.825,1.553,1.041-5.5,3.682v6.546s-24.391,13.9-27.274,40.915c0,0-1.823,1.832-2.622,1.832s-5.235-.251-5.235-.251L439.62,189.3l5.254.79s-2.622,11-16.524,16.515l-2.1-.781-1.051-1.832h-2.883l-1.832,2.092-1.581,1.572-14.413.26-2.362-2.092-3.673,1.06L383.5,218.138l-2.092,5.254-4.2,3.673-5.5-1.841-5.245,2.362-3.943,2.632-4.984-1.32-8.639,3.943-29.645-1.051L314,236l-2.883,5.486-7.337,5.245-15.222,8.657-10.219-1.832-2.1-3.673-5.5,2.111,1.832,3.933-2.622,1.041-4.473-3.682-6.807-.521-16.784-.26-3.924,3.933s-16.264,8.648-33.578,6.816l-10.48-7.858-5.272-.53-1.841,2.1-15.724-1.3s-5.5-11.3-15.734-.279l-6.546.53s-1.32,3.915-7.867,3.915l-5.514-.242-6.035-2.12-4.463-.242-4.454-1.562-1.832-3.162-7.355.53-4.184,2.353-9.708,7.346-.781,3.933L89.778,276.1v4.724l1.562,4.454-4.715.549L84,284.244l-2.622,2.092-4.463-.26-2.1,2.092-2.092-.79-5.235-3.924,1.823-3.4-5.245-5.514-.26-3.143s-2.362-2.1-3.413-2.1H57.771L50.7,260.643v-4.2l-5.756-2.1L41.777,251.2,38.1,252l-1.562,1.041L21.85,239.4l-4.993-.79.27-3.413a12.341,12.341,0,0,1-7.086-9.448l-3.031-4.77c2.1-2.734,4.184-5.059,5.756-5.951,4.891-2.79,6.983-6.983,12.572-4.184s6.3,2.79,10.489,5.589a37.5,37.5,0,0,0,9.076,4.882,17.591,17.591,0,0,1,8.388,6.993c1.395,2.092,4.184,1.395,4.184-2.1s-4.891-8.378,3.5-9.773c0,0,15.585-3.794,17.491-6.472s.772-2.678,3.831-4.584,2.678-3.831,3.822-5.737,1.906-3.059,5.347-4.584,5.356-1.534,7.653-3.822,4.966-1.534,9.169-3.831,6.119-4.2,9.178-6.5-.381-3.441,7.644-2.669,7.272-.391,13.381-1.153,6.881-3.059,14.915-.763S162.951,179,168.307,179a35.445,35.445,0,0,0,6.881-.381l4.975.381,2.148-.707c.149-1.46-.112-1.711.139-3.5.381-2.669-.381-1.525.762-4.584s1.534-4.975,3.831-5.356a38.653,38.653,0,0,1,6.881,0s1.906,2.678,4.584,0,4.975-2.3,6.5-.381,2.678,2.3,5.737.763,3.059-1.906,4.584-.381,1.916,3.059,6.119.381,2.678-1.525,7.644-.763,5.356-1.916,8.415-.762,4.2,2.288,6.881,1.144a68.859,68.859,0,0,0,6.5-3.441s4.2-7.272,11.084-6.119,9.559,1.525,13.381.763,5.737.762,9.178-3.822,5.737-4.2,11.084-4.975,9.559-7.253,19.118-7.644,7.644-4.2,9.94-5.737,4.584-2.669,8.025-1.525,7.653,6.509,10.712.763,3.441-14.144,13-15.678S367.5,117.45,371.7,114s3.822-4.966,8.8-3.441,4.2,4.594,9.178,3.441a21.81,21.81,0,0,0,9.169-4.594c1.525-1.144,3.059-4.966,9.559-6.109s7.262-4.2,12.619-6.119,6.881-.763,9.169-4.594,1.534-5.347,5.356-6.881,5.356-4.2,8.415-3.822,9.55,1.153,11.847-2.3,4.2-4.966,9.178-7.644,4.584-3.441,9.178-3.822c1.358-.112,3.905-.372,6.816-.67l-.177,2.8-1.051,1.311,2.362,2.1,5.775,6.807v3.143l-3.422.781,6.026,1.581s5.775-4.724,3.682-8.667l2.883-.763,2.613,3.654,4.733,1.59,9.7,2.6-11.28,4.2Z" transform="translate(-0.491 -4.729)" fill="#fff" stroke="#f9f3e9" stroke-width="2"/>
    <path id="패스_2079" data-name="패스 2079" d="M431.574,8.123l1.581,7.067,4.2,4.717,13.111,11.81,2.623-.259,3.678-2.888h8.118l6.044,3.148,9.431-1.042,5.78,9.172V48.5l-2.362,6.04L482.193,59.8l-1.563,1.57-.273,4.193-1.042,1.309,2.358,2.1,5.771,6.81v3.145l-3.422.777,6.028,1.581s5.777-4.728,3.68-8.663l2.883-.768,2.62,3.657,4.726,1.587,9.7,2.6-11.275,4.208-5.771,4.452-2.883,5.5.8,5.256,3.4,2.37-.521,3.139-1.575,7.346-4.982-4.72,2.362-1.846-.789-3.68-3.4-.518-2.117,3.136-.512,7.09-1.837,3.933-.25,6.831,1.555,1.037-5.506,3.68v6.548s-24.386,13.9-27.269,40.92c0,0-1.828,1.828-2.623,1.828s-5.238-.253-5.238-.253l-6.04,8.648,5.25.8s-2.62,10.995-16.528,16.51l-2.1-.78-1.048-1.828h-2.888l-1.835,2.088-1.572,1.57-14.419.265-2.362-2.093-3.675,1.063-14.949,11.252-2.093,5.247-4.2,3.675-5.51-1.835-5.245,2.355-3.94,2.635L357.09,224.2l-8.642,3.94L318.8,227.1l-5.241,4.211-2.888,5.492-7.338,5.245L288.118,250.7,277.9,248.865l-2.1-3.675-5.5,2.111,1.837,3.937-2.623,1.041-4.473-3.68-6.808-.524-16.786-.259-3.919,3.933s-16.266,8.647-33.585,6.811l-10.48-7.856-5.265-.527-1.84,2.1-15.726-1.3s-5.51-11.3-15.736-.279l-6.551.533s-1.313,3.916-7.862,3.916l-5.518-.245-6.028-2.117-4.463-.247-4.455-1.563-1.832-3.162-7.355.529-4.19,2.359-9.7,7.346-.783,3.933-6.816,9.431v4.719l1.565,4.456-4.717.548-2.627-1.581-2.62,2.092-4.463-.265-2.1,2.094-2.1-.789-5.238-3.922,1.825-3.4-5.241-5.51-.262-3.148S61,264.6,59.95,264.6H57.332l-7.078-8.647v-4.2l-5.76-2.1-3.162-3.139-3.668.8-1.57,1.045L21.4,234.717l-4.985-.8.265-3.407a12.342,12.342,0,0,1-7.088-9.449L5.934,215.3l-5.252-2.63,3.145-6.022L9.592,197.2l-2.877-1.3-.259-15.483-2.1-3.139.786-4.955L8.3,168.348l-1.581-6.293,2.877-2.62,4.988,5.51s1.051-7.355,2.1-7.873,13.111-9.708,13.111-9.708l4.458.271,1.041-2.626,2.9-1.045v-5.245l7.081-6.286,4.717-.542,9.443-8.375,7.335-4.463.524-6.816-.783-12.858,8.392-1.3,4.2-4.211,6.3-.253L100.09,80.241l2.877-.271-.262-1.84-2.892-3.4,5.771-7.085,5.245,6.04,3.145.253,5.512-1.042,10.494-5.775,10.235-.253s.262-4.726,4.715-5.792c0,0,6.293-4.175,8.916,1.066l6.036.265,4.184-4.2,4.991.242,6.28-7.332,9.2,2.627,1.045-2.353,5.245.512s2.63-3.675,3.925-4.2c1.322-.521,5.258,0,5.258,0a15.213,15.213,0,0,1,8.922-7.067l5.506-1.846,3.4-5.5,4.193-.259,2.1,4.452,18.106-.524,6.828-2.892s6.28-5.5,23.851-3.4l4.2-.78,6.3-6.834,3.4,2.623,5.765-1.31,7.346.268,3.413-3.686,2.618-2.338s3.142-2.376,4.463-3.162a43.88,43.88,0,0,1,6.29-2.082l4.717,2.082,12.6.279,2.883-2.358,12.308-.545L363.9,6.02l12.856-.792,2.888,2.108,8.907-2.355V.5h4.2l5.506,3.94,9.187-1.57,3.422,3.4,6.816.53L420.3,4.44l4.458-1.57s1.835,2.1,2.627,2.1S431.574,8.123,431.574,8.123Z" transform="translate(0.399 0.508)" fill="none" stroke="#ede3d3" stroke-width="2"/>
  </g>
  <g id="txt">
    <path id="패스_2873" data-name="패스 2873" d="M-5.015-7.988H-6.2V.9h1.182ZM-12.886-1.7l.752.918a4.057,4.057,0,0,0,1.655-2.412A3.782,3.782,0,0,0-8.862-.977l.732-.918A4.046,4.046,0,0,1-9.888-5.605v-.479H-8.54v-1h-4v1h1.455v.479A4.433,4.433,0,0,1-12.886-1.7Zm3.711-2.236H-8V.488h1.172v-8.33H-8v2.9H-9.175Zm13.223.85H-4.058v1H-.64V.9H.591V-2.09H4.048ZM-3.657-4.58-3.2-3.6A4.214,4.214,0,0,0,0-5.391,4.221,4.221,0,0,0,3.218-3.6l.449-.977C1.841-4.8.859-5.669.732-6.543H3.325V-7.52h-6.65v.977H-.732C-.864-5.669-1.86-4.8-3.657-4.58Zm11.7-1.4V-7.3H6.782v1.328A4.266,4.266,0,0,1,4.468-1.895L5.22-.859A4.261,4.261,0,0,0,7.432-3.521,4.138,4.138,0,0,0,9.556-1.074l.732-1A4.085,4.085,0,0,1,8.042-5.977ZM10.767.918h1.26V-7.988h-1.26Z" transform="translate(232.865 103.77)" fill="#d5cbbc"/>
    <path id="패스_2874" data-name="패스 2874" d="M-13.662-5.977V-7.3h-1.26v1.328A4.327,4.327,0,0,1-17.148-1.9l.781,1.016a4.258,4.258,0,0,0,2.08-2.622,4.061,4.061,0,0,0,2.021,2.466l.762-1A4.087,4.087,0,0,1-13.662-5.977ZM-12.5-4.189h1.748V.918h1.23V-7.988h-1.23V-5.2H-12.5Zm11.738-3.8h-1.26V.9h1.26ZM-8.437-3.916-8.281-2.9c.664,0,1.372-.01,2.109-.029V.41h1.25v-3.4c.825-.049,1.66-.122,2.48-.234l-.088-.928c-.352.039-.708.068-1.069.1a15.408,15.408,0,0,0,.22-2.822v-.5H-7.705v1h3.091a13.766,13.766,0,0,1-.264,2.4C-6.118-3.921-7.354-3.911-8.437-3.916ZM8.4-1.133H4.922v-1.6H7.676v-.977H6.465V-6.25h1.25v-1H.9v1h1.23v2.539H.937v.977H3.682v1.6H.264V-.088H8.4ZM3.379-3.711V-6.25H5.234v2.539Zm8.984-2.266V-7.3H11.1v1.328A4.266,4.266,0,0,1,8.789-1.895L9.541-.859a4.261,4.261,0,0,0,2.212-2.661,4.138,4.138,0,0,0,2.124,2.446l.732-1A4.085,4.085,0,0,1,12.363-5.977ZM15.088.918h1.26V-7.988h-1.26Z" transform="translate(278.865 195.77)" fill="#d5cbbc"/>
  </g>
  <g id="그룹_697" data-name="그룹 697" transform="translate(-604.135 -4844.73)">
    <g id="그룹_564" data-name="그룹 564" transform="translate(83 839.5)">
      <g id="그룹_565" data-name="그룹 565" transform="translate(5.375 3.102)">
        <rect id="사각형_69" data-name="사각형 69" width="40.389" height="20.409" rx="10.204" transform="translate(774 4159)" fill="#37197d"/>
        <path id="다각형_24" data-name="다각형 24" d="M3.96,0l3.96,6.531H0Z" transform="translate(798.102 4183.898) rotate(180)" fill="#37197d"/>
      </g>
      <path id="패스_2875" data-name="패스 2875" d="M1.764-9.9H-.178L-2.625-8.34v1.818l2.27-1.422H-.3V0H1.764Z" transform="translate(800 4177)" fill="#f9f3e9"/>
    </g>
  </g>
  <g id="그룹_778" data-name="그룹 778" transform="translate(-649.635 -4928.977)">
    <g id="그룹_564-2" data-name="그룹 564" transform="translate(83 832.5)">
      <g id="그룹_565-2" data-name="그룹 565" transform="translate(1.278 2.965)">
        <rect id="사각형_69-2" data-name="사각형 69" width="49.418" height="20.521" rx="10.26" transform="translate(774 4159)" fill="#37197d"/>
        <path id="다각형_24-2" data-name="다각형 24" d="M4.845,0,9.69,6.567H0Z" transform="translate(803.49 4184.035) rotate(180)" fill="#37197d"/>
      </g>
      <path id="패스_2876" data-name="패스 2876" d="M-2.334-9.9H-4.275L-6.722-8.34v1.818l2.27-1.422H-4.4V0h2.064ZM-.387,0H6.7V-1.7H2.471V-1.75l1.5-1.463c2.037-1.846,2.584-2.769,2.584-3.9,0-1.716-1.408-2.926-3.527-2.926C.946-10.035-.489-8.8-.483-6.863H1.472A1.418,1.418,0,0,1,3-8.395,1.418,1.418,0,0,1,4.576-6.973c0,.786-.5,1.333-1.422,2.215L-.4-1.49Z" transform="translate(800 4177)" fill="#f9f3e9"/>
    </g>
  </g>
</svg>
